<svg width="32" height="32" viewBox="0 0 32 32" fill="none" xmlns="http://www.w3.org/2000/svg">
<path d="M21.5 21.1C21.3 20.9 21.2 20.6556 21.2 20.3667C21.2 20.0778 21.3 19.8444 21.5 19.6667L24.1667 17H13.5C13.2111 17 12.9722 16.9056 12.7833 16.7167C12.5944 16.5278 12.5 16.2889 12.5 16C12.5 15.7111 12.5944 15.4722 12.7833 15.2833C12.9722 15.0944 13.2111 15 13.5 15H24.1L21.4 12.3C21.2222 12.1222 21.1333 11.8944 21.1333 11.6167C21.1333 11.3389 21.2333 11.1 21.4333 10.9C21.6333 10.7 21.8722 10.6 22.15 10.6C22.4278 10.6 22.6667 10.7 22.8667 10.9L27.3 15.3333C27.4111 15.4444 27.4889 15.5556 27.5333 15.6667C27.5778 15.7778 27.6 15.9 27.6 16.0333C27.6 16.1667 27.5778 16.2889 27.5333 16.4C27.4889 16.5111 27.4111 16.6222 27.3 16.7333L22.9 21.1333C22.7222 21.3111 22.4944 21.4 22.2167 21.4C21.9389 21.4 21.7 21.3 21.5 21.1V21.1ZM6 28C5.46667 28 5 27.8 4.6 27.4C4.2 27 4 26.5333 4 26V6C4 5.46667 4.2 5 4.6 4.6C5 4.2 5.46667 4 6 4H14.7C14.9889 4 15.2278 4.09444 15.4167 4.28333C15.6056 4.47222 15.7 4.71111 15.7 5C15.7 5.28889 15.6056 5.52778 15.4167 5.71667C15.2278 5.90556 14.9889 6 14.7 6H6V26H14.7C14.9889 26 15.2278 26.0944 15.4167 26.2833C15.6056 26.4722 15.7 26.7111 15.7 27C15.7 27.2889 15.6056 27.5278 15.4167 27.7167C15.2278 27.9056 14.9889 28 14.7 28H6Z" fill="white"/>
</svg>
