<svg width="32" height="32" viewBox="0 0 32 32" fill="none" xmlns="http://www.w3.org/2000/svg">
<path d="M16 28C12.6667 28 9.83333 26.8333 7.5 24.5C5.16667 22.1667 4 19.3333 4 16C4 13 4.88333 10.4555 6.65 8.36665C8.41667 6.27776 10.7333 4.93332 13.6 4.33332C14.5111 4.15554 15.1333 4.3111 15.4667 4.79998C15.8 5.28887 15.7889 5.95554 15.4333 6.79998C15.2333 7.3111 15.0778 7.83332 14.9667 8.36665C14.8556 8.89999 14.8 9.44443 14.8 9.99998C14.8 12 15.5 13.7 16.9 15.1C18.3 16.5 20 17.2 22 17.2C22.5556 17.2 23.0944 17.15 23.6167 17.05C24.1389 16.95 24.6444 16.8111 25.1333 16.6333C26.0889 16.2778 26.8 16.2944 27.2667 16.6833C27.7333 17.0722 27.8556 17.7333 27.6333 18.6667C27.0333 21.3555 25.6889 23.5833 23.6 25.35C21.5111 27.1167 18.9778 28 16 28ZM16 26C18.4222 26 20.5333 25.25 22.3333 23.75C24.1333 22.25 25.2556 20.4889 25.7 18.4667C25.1444 18.7111 24.55 18.8944 23.9167 19.0167C23.2833 19.1389 22.6444 19.2 22 19.2C19.4444 19.2 17.2722 18.3055 15.4833 16.5167C13.6944 14.7278 12.8 12.5555 12.8 9.99998C12.8 9.46665 12.8556 8.89443 12.9667 8.28332C13.0778 7.67221 13.2778 6.97776 13.5667 6.19999C11.3889 6.79999 9.58333 8.01665 8.15 9.84998C6.71667 11.6833 6 13.7333 6 16C6 18.7778 6.97222 21.1389 8.91667 23.0833C10.8611 25.0278 13.2222 26 16 26Z" fill="white"/>
</svg>
