<svg width="32" height="32" viewBox="0 0 32 32" fill="none" xmlns="http://www.w3.org/2000/svg">
<path d="M7.39984 23.5001C8.79984 22.5223 10.1887 21.7723 11.5665 21.2501C12.9443 20.7279 14.4221 20.4667 15.9998 20.4667C17.5776 20.4667 19.0609 20.7279 20.4498 21.2501C21.8387 21.7723 23.2332 22.5223 24.6332 23.5001C25.6109 22.3001 26.3054 21.089 26.7165 19.8667C27.1276 18.6445 27.3332 17.3556 27.3332 16.0001C27.3332 12.7779 26.2498 10.0834 24.0832 7.91675C21.9165 5.75008 19.2221 4.66675 15.9998 4.66675C12.7776 4.66675 10.0832 5.75008 7.9165 7.91675C5.74984 10.0834 4.6665 12.7779 4.6665 16.0001C4.6665 17.3556 4.87761 18.6445 5.29984 19.8667C5.72206 21.089 6.42206 22.3001 7.39984 23.5001ZM15.9998 17.0001C14.7109 17.0001 13.6276 16.5612 12.7498 15.6834C11.8721 14.8056 11.4332 13.7223 11.4332 12.4334C11.4332 11.1445 11.8721 10.0612 12.7498 9.18341C13.6276 8.30564 14.7109 7.86675 15.9998 7.86675C17.2887 7.86675 18.3721 8.30564 19.2498 9.18341C20.1276 10.0612 20.5665 11.1445 20.5665 12.4334C20.5665 13.7223 20.1276 14.8056 19.2498 15.6834C18.3721 16.5612 17.2887 17.0001 15.9998 17.0001ZM15.9998 29.3334C14.1776 29.3334 12.4554 28.9834 10.8332 28.2834C9.21095 27.5834 7.79428 26.6279 6.58317 25.4167C5.37206 24.2056 4.4165 22.789 3.7165 21.1667C3.0165 19.5445 2.6665 17.8223 2.6665 16.0001C2.6665 14.1556 3.0165 12.4279 3.7165 10.8167C4.4165 9.20564 5.37206 7.79453 6.58317 6.58341C7.79428 5.3723 9.21095 4.41675 10.8332 3.71675C12.4554 3.01675 14.1776 2.66675 15.9998 2.66675C17.8443 2.66675 19.5721 3.01675 21.1832 3.71675C22.7943 4.41675 24.2054 5.3723 25.4165 6.58341C26.6276 7.79453 27.5832 9.20564 28.2832 10.8167C28.9832 12.4279 29.3332 14.1556 29.3332 16.0001C29.3332 17.8223 28.9832 19.5445 28.2832 21.1667C27.5832 22.789 26.6276 24.2056 25.4165 25.4167C24.2054 26.6279 22.7943 27.5834 21.1832 28.2834C19.5721 28.9834 17.8443 29.3334 15.9998 29.3334ZM15.9998 27.3334C17.2221 27.3334 18.4165 27.1556 19.5832 26.8001C20.7498 26.4445 21.8998 25.8223 23.0332 24.9334C21.8998 24.1334 20.7443 23.5223 19.5665 23.1001C18.3887 22.6779 17.1998 22.4667 15.9998 22.4667C14.7998 22.4667 13.6109 22.6779 12.4332 23.1001C11.2554 23.5223 10.0998 24.1334 8.9665 24.9334C10.0998 25.8223 11.2498 26.4445 12.4165 26.8001C13.5832 27.1556 14.7776 27.3334 15.9998 27.3334ZM15.9998 15.0001C16.7554 15.0001 17.3721 14.7612 17.8498 14.2834C18.3276 13.8056 18.5665 13.189 18.5665 12.4334C18.5665 11.6779 18.3276 11.0612 17.8498 10.5834C17.3721 10.1056 16.7554 9.86675 15.9998 9.86675C15.2443 9.86675 14.6276 10.1056 14.1498 10.5834C13.6721 11.0612 13.4332 11.6779 13.4332 12.4334C13.4332 13.189 13.6721 13.8056 14.1498 14.2834C14.6276 14.7612 15.2443 15.0001 15.9998 15.0001Z" fill="white"/>
</svg>
