<svg width="103" height="48" viewBox="0 0 103 48" fill="none" xmlns="http://www.w3.org/2000/svg">
<g clip-path="url(#clip0_104_1581)">
<path d="M10.9755 25.5144C15.4358 25.5144 18.864 24.3796 21.1863 22.0735C23.5455 19.7673 24.7251 16.6924 24.7251 12.8121C24.7251 9.00509 23.5455 5.93018 21.1494 3.55079C18.7903 1.17139 15.3989 0 10.9386 0H0.506714V25.5144H10.9755ZM7.51047 6.58909H10.4963C13.4822 6.58909 15.4358 7.248 16.4311 8.456C17.4263 9.664 17.6844 10.9452 17.6844 12.8121C17.6844 14.7156 17.4263 15.9968 16.4311 17.2781C15.5095 18.5593 13.4822 19.2182 10.5332 19.2182H7.51047V6.58909ZM47.1791 25.5144V19.3646H34.941V15.4844H46.0733V9.77382H34.941V6.25964H46.8843V0H27.9372V25.5144H47.1791ZM62.7772 25.5144V6.29624H69.5596V0H48.8431V6.29624H55.773V25.5144H62.7772ZM91.0967 25.5144V19.3646H78.8585V15.4844H89.9912V9.77382H78.8585V6.25964H90.8021V0H71.8549V25.5144H91.0967ZM101.829 25.5144V0H94.8254V25.5144H101.829Z" fill="#104183"/>
<path d="M0.51593 28.9083V29.878H101.82V28.9083H0.51593Z" fill="url(#paint0_linear_104_1581)"/>
<path d="M7.31475 38.1204C7.93383 38.1204 8.41832 37.9498 8.76285 37.6138C9.10738 37.2778 9.27965 36.8298 9.27965 36.2698C9.27965 35.7098 9.10738 35.2618 8.75747 34.9204C8.41294 34.5738 7.92844 34.4031 7.30936 34.4031H5.96893V38.1204H7.31475ZM6.64184 35.0058H7.26092C8.20299 35.0058 8.60674 35.4858 8.60674 36.2698C8.60674 37.0324 8.19761 37.5178 7.2663 37.5178H6.64184V35.0058ZM12.3449 38.1204V37.5178H10.5899V36.4938H12.1995V35.8911H10.5899V35.0058H12.3072V34.4031H9.91703V38.1204H12.3449ZM13.7022 38.1204V36.8191H14.4612C14.7842 36.8191 15.0695 36.7071 15.3118 36.4778C15.5594 36.2484 15.6832 35.9604 15.6832 35.6138C15.6832 35.2564 15.5594 34.9631 15.3118 34.7391C15.0641 34.5151 14.7788 34.4031 14.4612 34.4031H13.0293V38.1204H13.7022ZM13.7022 35.0058H14.4289C14.7304 35.0058 15.0157 35.2244 15.0157 35.6138C15.0157 35.9978 14.7304 36.2164 14.4289 36.2164H13.7022V35.0058ZM16.3195 38.1204L16.6264 37.3791H18.2952L18.602 38.1204H19.3126L17.7461 34.4031H17.1755L15.6089 38.1204H16.3195ZM17.4608 35.3151L18.0852 36.8298H16.8363L17.4608 35.3151ZM20.5259 38.1204V36.7978H21.1826H21.1934L21.9955 38.1204H22.7546L21.8448 36.6378C22.2539 36.4671 22.5285 36.0671 22.5285 35.5818C22.5285 35.2458 22.41 34.9684 22.1732 34.7444C21.9363 34.5151 21.651 34.4031 21.3118 34.4031H19.853V38.1204H20.5259ZM20.5259 35.0058H21.2957C21.6187 35.0058 21.8609 35.2511 21.8609 35.5924C21.8609 35.9498 21.6079 36.2004 21.2419 36.2004H20.5259V35.0058ZM24.5222 38.1204V35.0058H25.5396V34.4031H22.8318V35.0058H23.8493V38.1204H24.5222ZM26.0137 38.1204L26.3205 37.3791H27.9893L28.2962 38.1204H29.0068L27.4402 34.4031H26.8696L25.3031 38.1204H26.0137ZM27.1549 35.3151L27.7794 36.8298H26.5304L27.1549 35.3151ZM30.1823 38.1204V35.6084L31.4689 37.5658L32.7448 35.6031V38.1204H33.38V34.4031H32.8094L31.4689 36.4884L30.1231 34.4031H29.5471V38.1204H30.1823ZM36.6433 38.1204V37.5178H34.8883V36.4938H36.4979V35.8911H34.8883V35.0058H36.6056V34.4031H34.2154V38.1204H36.6433ZM37.979 38.1204V35.4911L40.0085 38.1204H40.5576V34.4031H39.9062V36.9844L37.9198 34.4031H37.3276V38.1204H37.979ZM42.7696 38.1204V35.0058H43.7871V34.4031H41.0793V35.0058H42.0967V38.1204H42.7696ZM45.9438 38.1951C46.4982 38.1951 46.972 38.0084 47.3542 37.6404C47.7364 37.2724 47.9302 36.8138 47.9302 36.2698C47.9302 35.7258 47.7364 35.2671 47.3488 34.8991C46.9666 34.5258 46.4982 34.3391 45.9438 34.3391C45.3893 34.3391 44.9209 34.5258 44.5387 34.8991C44.1565 35.2671 43.9627 35.7258 43.9627 36.2698C43.9627 36.8138 44.1565 37.2724 44.5387 37.6404C44.9209 38.0084 45.3893 38.1951 45.9438 38.1951ZM44.6249 36.2698C44.6249 35.8964 44.7487 35.5818 45.0017 35.3258C45.2547 35.0698 45.5723 34.9418 45.9438 34.9418C46.3152 34.9418 46.6274 35.0698 46.8805 35.3258C47.1335 35.5818 47.2627 35.8964 47.2627 36.2698C47.2627 36.6431 47.1335 36.9578 46.8805 37.2138C46.6274 37.4644 46.3152 37.5924 45.9438 37.5924C45.5723 37.5924 45.2547 37.4644 45.0017 37.2138C44.7487 36.9631 44.6249 36.6484 44.6249 36.2698ZM51.9108 38.1204C52.5298 38.1204 53.0143 37.9498 53.3589 37.6138C53.7034 37.2778 53.8756 36.8298 53.8756 36.2698C53.8756 35.7098 53.7034 35.2618 53.3535 34.9204C53.0089 34.5738 52.5244 34.4031 51.9054 34.4031H50.5649V38.1204H51.9108ZM51.2378 35.0058H51.8569C52.799 35.0058 53.2027 35.4858 53.2027 36.2698C53.2027 37.0324 52.7936 37.5178 51.8623 37.5178H51.2378V35.0058ZM56.9412 38.1204V37.5178H55.1862V36.4938H56.7958V35.8911H55.1862V35.0058H56.9035V34.4031H54.5133V38.1204H56.9412ZM60.8123 38.1204V35.0058H61.8297V34.4031H59.1219V35.0058H60.1394V38.1204H60.8123ZM64.7793 38.1204V37.5178H63.0243V36.4938H64.6339V35.8911H63.0243V35.0058H64.7416V34.4031H62.3514V38.1204H64.7793ZM67.2565 34.3391C66.7021 34.3391 66.2283 34.5204 65.8407 34.8884C65.4585 35.2564 65.2647 35.7151 65.2647 36.2644C65.2647 36.8138 65.4585 37.2724 65.8407 37.6404C66.2283 38.0031 66.7021 38.1844 67.2565 38.1844C67.8433 38.1844 68.3817 37.9338 68.7477 37.5071L68.2955 37.1178C68.0317 37.4271 67.6818 37.5818 67.2565 37.5818C66.8797 37.5818 66.5621 37.4591 66.3091 37.2084C66.0561 36.9578 65.9323 36.6431 65.9323 36.2644C65.9323 35.8858 66.0561 35.5711 66.3091 35.3204C66.5621 35.0698 66.8797 34.9418 67.2565 34.9418C67.6711 34.9418 68.0156 35.0911 68.2848 35.3951L68.7423 35.0058C68.3494 34.5631 67.8541 34.3391 67.2565 34.3391ZM69.9477 38.1204V35.4911L71.9772 38.1204H72.5263V34.4031H71.8749V36.9844L69.8885 34.4031H69.2963V38.1204H69.9477ZM75.1367 38.1951C75.6912 38.1951 76.1649 38.0084 76.5471 37.6404C76.9293 37.2724 77.1231 36.8138 77.1231 36.2698C77.1231 35.7258 76.9293 35.2671 76.5417 34.8991C76.1595 34.5258 75.6912 34.3391 75.1367 34.3391C74.5822 34.3391 74.1139 34.5258 73.7317 34.8991C73.3495 35.2671 73.1557 35.7258 73.1557 36.2698C73.1557 36.8138 73.3495 37.2724 73.7317 37.6404C74.1139 38.0084 74.5822 38.1951 75.1367 38.1951ZM73.8178 36.2698C73.8178 35.8964 73.9416 35.5818 74.1946 35.3258C74.4476 35.0698 74.7653 34.9418 75.1367 34.9418C75.5082 34.9418 75.8204 35.0698 76.0734 35.3258C76.3264 35.5818 76.4556 35.8964 76.4556 36.2698C76.4556 36.6431 76.3264 36.9578 76.0734 37.2138C75.8204 37.4644 75.5082 37.5924 75.1367 37.5924C74.7653 37.5924 74.4476 37.4644 74.1946 37.2138C73.9416 36.9631 73.8178 36.6484 73.8178 36.2698ZM79.9136 38.1204V37.5178H78.4225V34.4031H77.7496V38.1204H79.9136ZM82.1076 38.1951C82.6621 38.1951 83.1358 38.0084 83.518 37.6404C83.9002 37.2724 84.094 36.8138 84.094 36.2698C84.094 35.7258 83.9002 35.2671 83.5126 34.8991C83.1304 34.5258 82.6621 34.3391 82.1076 34.3391C81.5531 34.3391 81.0848 34.5258 80.7025 34.8991C80.3203 35.2671 80.1265 35.7258 80.1265 36.2698C80.1265 36.8138 80.3203 37.2724 80.7025 37.6404C81.0848 38.0084 81.5531 38.1951 82.1076 38.1951ZM80.7887 36.2698C80.7887 35.8964 80.9125 35.5818 81.1655 35.3258C81.4185 35.0698 81.7361 34.9418 82.1076 34.9418C82.479 34.9418 82.7913 35.0698 83.0443 35.3258C83.2973 35.5818 83.4265 35.8964 83.4265 36.2698C83.4265 36.6431 83.2973 36.9578 83.0443 37.2138C82.7913 37.4644 82.479 37.5924 82.1076 37.5924C81.7361 37.5924 81.4185 37.4644 81.1655 37.2138C80.9125 36.9631 80.7887 36.6484 80.7887 36.2698ZM86.5131 34.3391C85.9586 34.3391 85.4849 34.5204 85.0973 34.8884C84.715 35.2564 84.5212 35.7151 84.5212 36.2644C84.5212 36.8138 84.715 37.2724 85.0973 37.6404C85.4849 38.0031 85.9586 38.1844 86.5131 38.1844C87.1321 38.1844 87.6866 37.9178 88.0473 37.4858V35.9871H86.3677V36.5791H87.4121V37.2618C87.1698 37.4751 86.8684 37.5818 86.5131 37.5818C86.1362 37.5818 85.8186 37.4591 85.5656 37.2084C85.3126 36.9578 85.1888 36.6431 85.1888 36.2644C85.1888 35.8858 85.3126 35.5711 85.5656 35.3204C85.8186 35.0698 86.1362 34.9418 86.5131 34.9418C86.8953 34.9418 87.2075 35.0644 87.4605 35.3044L87.9073 34.8991C87.5305 34.5258 87.0675 34.3391 86.5131 34.3391ZM89.4313 38.1204V34.4031H88.7584V38.1204H89.4313ZM90.7076 38.1204L91.0145 37.3791H92.6833L92.9901 38.1204H93.7007L92.1342 34.4031H91.5636L89.997 38.1204H90.7076ZM91.8489 35.3151L92.4734 36.8298H91.2244L91.8489 35.3151ZM93.8348 37.3364C94.0717 37.8644 94.5831 38.1844 95.2775 38.1844C96.1335 38.1844 96.5911 37.7418 96.5911 37.0858C96.5911 36.8084 96.5103 36.5844 96.3542 36.4191C96.1981 36.2538 95.9451 36.0991 95.5898 35.9551L95.3691 35.8698L95.1753 35.7951C95.1053 35.7578 94.9546 35.6938 94.8953 35.6511C94.8038 35.5604 94.7392 35.4858 94.7392 35.3311C94.7392 35.1018 94.9546 34.9364 95.2506 34.9364C95.5521 34.9364 95.7728 35.0484 95.9182 35.2671L96.3973 34.9418C96.1389 34.5418 95.7513 34.3391 95.2399 34.3391C94.9115 34.3391 94.6369 34.4298 94.4108 34.6164C94.1901 34.8031 94.0771 35.0431 94.0771 35.3418C94.0771 35.6564 94.1794 35.8964 94.3947 36.0724C94.61 36.2431 94.8092 36.3391 95.1537 36.4671C95.4337 36.5684 95.5467 36.6164 95.7028 36.7231C95.8589 36.8244 95.9182 36.9364 95.9182 37.1018C95.9182 37.3418 95.7513 37.5871 95.2829 37.5871C94.8469 37.5871 94.5347 37.4004 94.3409 37.0218L93.8348 37.3364ZM6.81704 45.3932V44.7905H5.06207V43.7665H6.67169V43.1638H5.06207V42.2785H6.77936V41.6758H4.38916V45.3932H6.81704ZM8.84718 45.3932C9.46625 45.3932 9.95075 45.2225 10.2953 44.8865C10.6398 44.5505 10.8121 44.1025 10.8121 43.5425C10.8121 42.9825 10.6398 42.5345 10.2899 42.1932C9.94537 41.8465 9.46087 41.6758 8.84179 41.6758H7.50135V45.3932H8.84718ZM8.17426 42.2785H8.79334C9.73542 42.2785 10.1392 42.7585 10.1392 43.5425C10.1392 44.3052 9.73003 44.7905 8.79873 44.7905H8.17426V42.2785ZM11.4172 43.9692C11.4172 44.4438 11.5571 44.8118 11.8424 45.0678C12.1278 45.3238 12.4938 45.4518 12.9406 45.4518C13.3874 45.4518 13.7481 45.3238 14.0334 45.0678C14.3188 44.8118 14.4587 44.4438 14.4587 43.9692V41.6758H13.7858V43.8998C13.7858 44.5398 13.4628 44.8492 12.9406 44.8492C12.4077 44.8492 12.0901 44.5398 12.0901 43.8998V41.6758H11.4172V43.9692ZM17.0535 41.6118C16.499 41.6118 16.0253 41.7932 15.6377 42.1612C15.2555 42.5292 15.0617 42.9878 15.0617 43.5372C15.0617 44.0865 15.2555 44.5452 15.6377 44.9132C16.0253 45.2758 16.499 45.4572 17.0535 45.4572C17.6403 45.4572 18.1786 45.2065 18.5447 44.7798L18.0925 44.3905C17.8287 44.6998 17.4788 44.8545 17.0535 44.8545C16.6767 44.8545 16.3591 44.7318 16.1061 44.4812C15.853 44.2305 15.7292 43.9158 15.7292 43.5372C15.7292 43.1585 15.853 42.8438 16.1061 42.5932C16.3591 42.3425 16.6767 42.2145 17.0535 42.2145C17.468 42.2145 17.8126 42.3638 18.0817 42.6678L18.5393 42.2785C18.1463 41.8358 17.6511 41.6118 17.0535 41.6118ZM19.5132 45.3932L19.8201 44.6518H21.4889L21.7957 45.3932H22.5063L20.9398 41.6758H20.3692L18.8026 45.3932H19.5132ZM20.6545 42.5878L21.279 44.1025H20.03L20.6545 42.5878ZM24.6133 41.6118C24.0588 41.6118 23.5851 41.7932 23.1975 42.1612C22.8152 42.5292 22.6214 42.9878 22.6214 43.5372C22.6214 44.0865 22.8152 44.5452 23.1975 44.9132C23.5851 45.2758 24.0588 45.4572 24.6133 45.4572C25.2 45.4572 25.7384 45.2065 26.1044 44.7798L25.6522 44.3905C25.3885 44.6998 25.0385 44.8545 24.6133 44.8545C24.2364 44.8545 23.9188 44.7318 23.6658 44.4812C23.4128 44.2305 23.289 43.9158 23.289 43.5372C23.289 43.1585 23.4128 42.8438 23.6658 42.5932C23.9188 42.3425 24.2364 42.2145 24.6133 42.2145C25.0278 42.2145 25.3723 42.3638 25.6415 42.6678L26.0991 42.2785C25.7061 41.8358 25.2108 41.6118 24.6133 41.6118ZM27.3475 45.3932V41.6758H26.6746V45.3932H27.3475ZM29.9858 45.4678C30.5403 45.4678 31.014 45.2812 31.3962 44.9132C31.7784 44.5452 31.9722 44.0865 31.9722 43.5425C31.9722 42.9985 31.7784 42.5398 31.3908 42.1718C31.0086 41.7985 30.5403 41.6118 29.9858 41.6118C29.4313 41.6118 28.963 41.7985 28.5807 42.1718C28.1985 42.5398 28.0047 42.9985 28.0047 43.5425C28.0047 44.0865 28.1985 44.5452 28.5807 44.9132C28.963 45.2812 29.4313 45.4678 29.9858 45.4678ZM28.6669 43.5425C28.6669 43.1692 28.7907 42.8545 29.0437 42.5985C29.2967 42.3425 29.6143 42.2145 29.9858 42.2145C30.3572 42.2145 30.6695 42.3425 30.9225 42.5985C31.1755 42.8545 31.3047 43.1692 31.3047 43.5425C31.3047 43.9158 31.1755 44.2305 30.9225 44.4865C30.6695 44.7372 30.3572 44.8652 29.9858 44.8652C29.6143 44.8652 29.2967 44.7372 29.0437 44.4865C28.7907 44.2358 28.6669 43.9212 28.6669 43.5425ZM33.2502 45.3932V42.7638L35.2797 45.3932H35.8288V41.6758H35.1774V44.2572L33.191 41.6758H32.5988V45.3932H33.2502ZM37.0772 45.3932L37.3841 44.6518H39.0529L39.3598 45.3932H40.0703L38.5038 41.6758H37.9332L36.3666 45.3932H37.0772ZM38.2185 42.5878L38.843 44.1025H37.594L38.2185 42.5878ZM41.3051 45.3932V41.6758H40.6322V45.3932H41.3051ZM41.8601 44.6092C42.097 45.1372 42.6084 45.4572 43.3028 45.4572C44.1588 45.4572 44.6163 45.0145 44.6163 44.3585C44.6163 44.0812 44.5356 43.8572 44.3795 43.6918C44.2234 43.5265 43.9703 43.3718 43.6151 43.2278L43.3943 43.1425L43.2005 43.0678C43.1306 43.0305 42.9798 42.9665 42.9206 42.9238C42.8291 42.8332 42.7645 42.7585 42.7645 42.6038C42.7645 42.3745 42.9798 42.2092 43.2759 42.2092C43.5774 42.2092 43.7981 42.3212 43.9434 42.5398L44.4225 42.2145C44.1641 41.8145 43.7766 41.6118 43.2651 41.6118C42.9368 41.6118 42.6622 41.7025 42.4361 41.8892C42.2154 42.0758 42.1023 42.3158 42.1023 42.6145C42.1023 42.9292 42.2046 43.1692 42.42 43.3452C42.6353 43.5158 42.8345 43.6118 43.179 43.7398C43.4589 43.8412 43.572 43.8892 43.7281 43.9958C43.8842 44.0972 43.9434 44.2092 43.9434 44.3745C43.9434 44.6145 43.7766 44.8598 43.3082 44.8598C42.8722 44.8598 42.5599 44.6732 42.3661 44.2945L41.8601 44.6092ZM49.7413 45.3932V44.7905H47.9864V43.7665H49.5959V43.1638H47.9864V42.2785H49.7036V41.6758H47.3135V45.3932H49.7413ZM53.9637 45.3932C54.5828 45.3932 55.0673 45.2225 55.4118 44.8865C55.7564 44.5505 55.9286 44.1025 55.9286 43.5425C55.9286 42.9825 55.7564 42.5345 55.4065 42.1932C55.0619 41.8465 54.5774 41.6758 53.9584 41.6758H52.6179V45.3932H53.9637ZM53.2908 42.2785H53.9099C54.852 42.2785 55.2557 42.7585 55.2557 43.5425C55.2557 44.3052 54.8466 44.7905 53.9153 44.7905H53.2908V42.2785ZM56.7601 45.3932L57.067 44.6518H58.7358L59.0426 45.3932H59.7532L58.1867 41.6758H57.6161L56.0495 45.3932H56.7601ZM57.9014 42.5878L58.5258 44.1025H57.2769L57.9014 42.5878ZM62.833 45.3932V41.6758H62.16V45.3932H62.833ZM64.3408 45.3932V42.7638L66.3703 45.3932H66.9194V41.6758H66.268V44.2572L64.2815 41.6758H63.6894V45.3932H64.3408ZM68.4208 45.3932V43.8145H69.8797V43.2118H68.4208V42.2785H70.0196V41.6758H67.7479V45.3932H68.4208ZM72.3898 45.4678C72.9442 45.4678 73.418 45.2812 73.8002 44.9132C74.1824 44.5452 74.3762 44.0865 74.3762 43.5425C74.3762 42.9985 74.1824 42.5398 73.7948 42.1718C73.4126 41.7985 72.9442 41.6118 72.3898 41.6118C71.8353 41.6118 71.3669 41.7985 70.9847 42.1718C70.6025 42.5398 70.4087 42.9985 70.4087 43.5425C70.4087 44.0865 70.6025 44.5452 70.9847 44.9132C71.3669 45.2812 71.8353 45.4678 72.3898 45.4678ZM71.0709 43.5425C71.0709 43.1692 71.1947 42.8545 71.4477 42.5985C71.7007 42.3425 72.0183 42.2145 72.3898 42.2145C72.7612 42.2145 73.0734 42.3425 73.3265 42.5985C73.5795 42.8545 73.7087 43.1692 73.7087 43.5425C73.7087 43.9158 73.5795 44.2305 73.3265 44.4865C73.0734 44.7372 72.7612 44.8652 72.3898 44.8652C72.0183 44.8652 71.7007 44.7372 71.4477 44.4865C71.1947 44.2358 71.0709 43.9212 71.0709 43.5425ZM75.6755 45.3932V44.0705H76.3323H76.3431L77.1452 45.3932H77.9042L76.9944 43.9105C77.4036 43.7398 77.6781 43.3398 77.6781 42.8545C77.6781 42.5185 77.5597 42.2412 77.3228 42.0172C77.0859 41.7878 76.8006 41.6758 76.4615 41.6758H75.0026V45.3932H75.6755ZM75.6755 42.2785H76.4453C76.7683 42.2785 77.0106 42.5238 77.0106 42.8652C77.0106 43.2225 76.7576 43.4732 76.3915 43.4732H75.6755V42.2785ZM79.0601 45.3932V42.8812L80.3467 44.8385L81.6226 42.8758V45.3932H82.2578V41.6758H81.6872L80.3467 43.7612L79.0009 41.6758H78.4249V45.3932H79.0601ZM83.5136 45.3932L83.8204 44.6518H85.4893L85.7961 45.3932H86.5067L84.9402 41.6758H84.3695L82.803 45.3932H83.5136ZM84.6549 42.5878L85.2793 44.1025H84.0304L84.6549 42.5878ZM86.6217 43.5372C86.6217 44.0225 86.7724 44.4385 87.0739 44.7852C87.3808 45.1318 87.763 45.3452 88.2313 45.4252L88.0752 45.7985C88.3121 45.7985 88.4197 45.8465 88.4197 46.0012C88.4197 46.1078 88.3336 46.1772 88.2098 46.1772C88.1183 46.1772 88.0321 46.1505 87.9406 46.0972L87.8007 46.3798C87.9245 46.4705 88.0806 46.5132 88.2636 46.5132C88.6458 46.5132 88.8773 46.3478 88.8773 46.0278C88.8773 45.7932 88.7212 45.6385 88.522 45.6385L88.6028 45.4572H88.6135C89.2003 45.4572 89.7386 45.2065 90.1047 44.7798L89.6525 44.3905C89.3887 44.6998 89.0388 44.8545 88.6135 44.8545C88.2367 44.8545 87.9191 44.7318 87.6661 44.4812C87.4131 44.2305 87.2892 43.9158 87.2892 43.5372C87.2892 43.1585 87.4131 42.8438 87.6661 42.5932C87.9191 42.3425 88.2367 42.2145 88.6135 42.2145C89.028 42.2145 89.3726 42.3638 89.6417 42.6678L90.0993 42.2785C89.7063 41.8358 89.2111 41.6118 88.6135 41.6118C88.059 41.6118 87.5853 41.7932 87.1977 42.1612C86.8155 42.5292 86.6217 42.9878 86.6217 43.5372ZM91.6061 41.3772C91.6331 41.2545 91.7084 41.1905 91.8322 41.1905C91.9022 41.1905 92.0153 41.2278 92.166 41.3025C92.3167 41.3718 92.4513 41.4092 92.5698 41.4092C92.9304 41.4092 93.1404 41.1958 93.1942 40.7638L92.8228 40.7158C92.7851 40.8598 92.7043 40.9345 92.5805 40.9345C92.5105 40.9345 92.3975 40.8972 92.2468 40.8278C92.096 40.7585 91.9614 40.7212 91.8484 40.7212C91.5092 40.7212 91.2778 40.9718 91.2293 41.3345L91.6061 41.3772ZM91.0732 45.3932L91.3801 44.6518H93.0489L93.3557 45.3932H94.0663L92.4998 41.6758H91.9291L90.3626 45.3932H91.0732ZM92.2145 42.5878L92.8389 44.1025H91.59L92.2145 42.5878ZM96.1624 45.4678C96.7168 45.4678 97.1906 45.2812 97.5728 44.9132C97.955 44.5452 98.1488 44.0865 98.1488 43.5425C98.1488 42.9985 97.955 42.5398 97.5674 42.1718C97.1852 41.7985 96.7168 41.6118 96.1624 41.6118C95.6079 41.6118 95.1395 41.7985 94.7573 42.1718C94.3751 42.5398 94.1813 42.9985 94.1813 43.5425C94.1813 44.0865 94.3751 44.5452 94.7573 44.9132C95.1395 45.2812 95.6079 45.4678 96.1624 45.4678ZM94.8435 43.5425C94.8435 43.1692 94.9673 42.8545 95.2203 42.5985C95.4733 42.3425 95.7909 42.2145 96.1624 42.2145C96.5338 42.2145 96.846 42.3425 97.0991 42.5985C97.3521 42.8545 97.4813 43.1692 97.4813 43.5425C97.4813 43.9158 97.3521 44.2305 97.0991 44.4865C96.846 44.7372 96.5338 44.8652 96.1624 44.8652C95.7909 44.8652 95.4733 44.7372 95.2203 44.4865C94.9673 44.2358 94.8435 43.9212 94.8435 43.5425Z" fill="#104183"/>
</g>
<defs>
<linearGradient id="paint0_linear_104_1581" x1="0.51593" y1="29.3932" x2="101.82" y2="29.3932" gradientUnits="userSpaceOnUse">
<stop stop-color="#FFFF00"/>
<stop offset="0.509615" stop-color="#54AD33"/>
<stop offset="1" stop-color="#FFFF00"/>
</linearGradient>
<clipPath id="clip0_104_1581">
<rect width="101.793" height="48" fill="white" transform="translate(0.506714)"/>
</clipPath>
</defs>
</svg>
