<svg width="242" height="103" viewBox="0 0 242 103" fill="none" xmlns="http://www.w3.org/2000/svg">
<path d="M0 76V79H242V76H0Z" fill="url(#paint0_linear_224_1404)"/>
<path d="M16.7442 68L19.3712 61.539H38.3992L40.9552 68H55.2262L35.0622 18.513H22.7082L2.54416 68H16.7442ZM28.8852 35.766L34.8492 51.102H22.9212L28.8852 35.766ZM77.153 68V30.725H90.217V18.513H50.315V30.725H63.663V68H77.153ZM131.7 68V56.072H108.128V48.546H129.57V37.47H108.128V30.654H131.132V18.513H94.6378V68H131.7ZM151.519 68V40.381L173.316 68H184.321V18.513H171.399V45.067L150.667 18.513H138.597V68H151.519ZM202.98 68L205.607 61.539H224.635L227.191 68H241.462L221.298 18.513H208.944L188.78 68H202.98ZM215.121 35.766L221.085 51.102H209.157L215.121 35.766Z" fill="white"/>
<path d="M230.601 94V84.939H226.779V87.175H228.131V94H230.601ZM231.963 93.766C232.47 94.247 233.263 94.247 233.744 93.766C234.251 93.285 234.251 92.479 233.744 91.998C233.263 91.517 232.47 91.517 231.963 91.998C231.482 92.479 231.482 93.285 231.963 93.766ZM234.376 92.271C234.961 93.376 236.209 94.091 237.665 94.091C238.666 94.091 239.524 93.779 240.226 93.168C240.941 92.544 241.292 91.79 241.292 90.919C241.292 90.087 240.98 89.385 240.343 88.8C239.719 88.215 238.965 87.916 238.094 87.916C237.847 87.916 237.639 87.929 237.496 87.968L237.678 87.175H240.629V84.939H235.962L234.974 89.658L236.807 90.139C237.002 89.944 237.288 89.84 237.665 89.84C238.38 89.84 238.848 90.178 238.848 90.854C238.848 91.465 238.328 91.881 237.665 91.881C237.08 91.881 236.56 91.556 236.339 91.049L234.376 92.271Z" fill="white"/>
<defs>
<linearGradient id="paint0_linear_224_1404" x1="0" y1="77.5" x2="242" y2="77.5" gradientUnits="userSpaceOnUse">
<stop stop-color="#FFFF00"/>
<stop offset="0.509615" stop-color="#54AD33"/>
<stop offset="1" stop-color="#FFFF00"/>
</linearGradient>
</defs>
</svg>
