<svg width="100" height="32" viewBox="0 0 100 32" fill="none" xmlns="http://www.w3.org/2000/svg">
<path d="M6.5467 19.2534V17.7044H3.5502V16.727H6.27593V15.2886H3.5502V14.4035H6.4745V12.8268H1.83533V19.2534H6.5467ZM9.98675 19.2534C11.0789 19.2534 11.9182 18.9676 12.4869 18.3867C13.0645 17.8058 13.3533 17.0313 13.3533 16.0539C13.3533 15.095 13.0645 14.3205 12.4778 13.7212C11.9002 13.1218 11.0698 12.8268 9.97773 12.8268H7.42347V19.2534H9.98675ZM9.13834 14.4865H9.86942C10.6005 14.4865 11.0789 14.6524 11.3225 14.9567C11.5662 15.261 11.6294 15.5837 11.6294 16.0539C11.6294 16.5334 11.5662 16.8561 11.3225 17.1788C11.0969 17.5015 10.6005 17.6675 9.87844 17.6675H9.13834V14.4865ZM14.0676 16.4873C14.0676 17.4185 14.3384 18.1285 14.8709 18.6172C15.4034 19.1059 16.0803 19.3456 16.8926 19.3456C17.705 19.3456 18.3819 19.1059 18.9144 18.6172C19.4469 18.1285 19.7177 17.4185 19.7177 16.4873V12.8268H18.0028V16.3029C18.0028 17.3632 17.6057 17.7597 16.8926 17.7597C16.1796 17.7597 15.7825 17.3632 15.7825 16.3029V12.8268H14.0676V16.4873ZM23.8571 12.7346C22.9004 12.7346 22.0881 13.0481 21.4202 13.6843C20.7613 14.3113 20.4274 15.095 20.4274 16.0447C20.4274 16.9944 20.7613 17.7781 21.4202 18.4051C22.0881 19.0321 22.9004 19.3456 23.8571 19.3456C24.877 19.3456 25.8157 18.8754 26.4655 18.0916L25.3012 17.0958C24.9041 17.5476 24.4257 17.7781 23.8571 17.7781C23.3788 17.7781 22.9726 17.6122 22.6387 17.2895C22.3047 16.9575 22.1422 16.5426 22.1422 16.0447C22.1422 15.5468 22.3047 15.1319 22.6387 14.8C22.9726 14.468 23.3788 14.3021 23.8571 14.3021C24.4257 14.3021 24.9041 14.5326 25.3012 14.9844L26.4655 13.9886C25.8157 13.2048 24.877 12.7346 23.8571 12.7346ZM28.3091 19.2534L28.6431 18.4143H31.062L31.3869 19.2534H33.201L30.6377 12.8268H29.0673L26.504 19.2534H28.3091ZM29.8525 15.0673L30.6107 17.059H29.0944L29.8525 15.0673ZM33.1197 16.0447C33.1197 16.893 33.3904 17.6214 33.941 18.2299C34.4916 18.8293 35.1775 19.1889 36.0079 19.3087L35.7461 19.9542C36.071 19.9542 36.2245 20.0371 36.2245 20.2676C36.2245 20.4244 36.0981 20.5258 35.9176 20.5258C35.7732 20.5258 35.6378 20.4889 35.5205 20.4152L35.2136 21.079C35.4573 21.2634 35.7732 21.3557 36.1432 21.3557C36.8563 21.3557 37.3076 20.9961 37.3076 20.3783C37.3076 19.9634 37.0458 19.6775 36.7119 19.6775L36.8563 19.3272H36.8653C37.7859 19.2442 38.5531 18.8293 39.1578 18.0916L37.9935 17.0958C37.5964 17.5476 37.118 17.7781 36.5494 17.7781C36.071 17.7781 35.6649 17.6122 35.3309 17.2895C34.997 16.9575 34.8345 16.5426 34.8345 16.0447C34.8345 15.5468 34.997 15.1319 35.3309 14.8C35.6649 14.468 36.071 14.3021 36.5494 14.3021C37.118 14.3021 37.5964 14.5326 37.9935 14.9844L39.1578 13.9886C38.508 13.2048 37.5693 12.7346 36.5494 12.7346C35.5927 12.7346 34.7804 13.0481 34.1125 13.6843C33.4536 14.3113 33.1197 15.095 33.1197 16.0447ZM41.4166 12.3842C41.4527 12.1721 41.5701 12.0615 41.7777 12.0615C41.9221 12.0615 42.1477 12.126 42.4546 12.2644C42.7615 12.4027 43.0322 12.4672 43.2759 12.4672C44.0521 12.4672 44.5034 11.9877 44.6298 11.038L43.7453 10.8905C43.6821 11.1487 43.5467 11.2778 43.3481 11.2778C43.2037 11.2778 42.9781 11.2132 42.6712 11.0749C42.3734 10.9366 42.1026 10.8721 41.8679 10.8721C41.1188 10.8721 40.6404 11.4253 40.5321 12.2367L41.4166 12.3842ZM41.0015 19.2534L41.3354 18.4143H43.7543L44.0792 19.2534H45.8934L43.3301 12.8268H41.7596L39.1963 19.2534H41.0015ZM42.5448 15.0673L43.303 17.059H41.7867L42.5448 15.0673ZM52.7528 16.0631C52.7528 15.1411 52.4099 14.3574 51.7329 13.7119C51.056 13.0573 50.2437 12.7346 49.278 12.7346C48.3122 12.7346 47.4999 13.0573 46.823 13.7119C46.1459 14.3666 45.812 15.1503 45.812 16.0631C45.812 16.976 46.1459 17.7597 46.823 18.4143C47.4999 19.0598 48.3122 19.3825 49.278 19.3825C50.2437 19.3825 51.056 19.0598 51.7329 18.4143C52.4099 17.7597 52.7528 16.976 52.7528 16.0631ZM47.5631 16.0631C47.5631 15.5837 47.7346 15.1688 48.0685 14.8276C48.4025 14.4772 48.8086 14.3021 49.278 14.3021C49.7473 14.3021 50.1535 14.4772 50.4874 14.8276C50.8304 15.178 51.0019 15.5929 51.0019 16.0631C51.0019 16.5334 50.8304 16.9483 50.4874 17.2987C50.1535 17.6398 49.7473 17.815 49.278 17.815C48.7996 17.815 48.3935 17.6491 48.0595 17.3079C47.7256 16.9667 47.5631 16.5518 47.5631 16.0631ZM53.1975 20.4336L54.3347 18.2299H52.7913L52.0061 20.4336H53.1975ZM61.4669 12.7346C60.5101 12.7346 59.6978 13.0481 59.0299 13.6843C58.3711 14.3113 58.0371 15.095 58.0371 16.0447C58.0371 16.9944 58.3711 17.7781 59.0299 18.4051C59.6978 19.0321 60.5101 19.3456 61.4669 19.3456C62.4868 19.3456 63.4254 18.8754 64.0753 18.0916L62.911 17.0958C62.5138 17.5476 62.0355 17.7781 61.4669 17.7781C60.9885 17.7781 60.5823 17.6122 60.2484 17.2895C59.9144 16.9575 59.752 16.5426 59.752 16.0447C59.752 15.5468 59.9144 15.1319 60.2484 14.8C60.5823 14.468 60.9885 14.3021 61.4669 14.3021C62.0355 14.3021 62.5138 14.5326 62.911 14.9844L64.0753 13.9886C63.4254 13.2048 62.4868 12.7346 61.4669 12.7346ZM64.6339 16.4873C64.6339 17.4185 64.9047 18.1285 65.4372 18.6172C65.9697 19.1059 66.6466 19.3456 67.4589 19.3456C68.2712 19.3456 68.9482 19.1059 69.4807 18.6172C70.0132 18.1285 70.284 17.4185 70.284 16.4873V12.8268H68.5691V16.3029C68.5691 17.3632 68.172 17.7597 67.4589 17.7597C66.7459 17.7597 66.3488 17.3632 66.3488 16.3029V12.8268H64.6339V16.4873ZM75.344 19.2534V17.6675H72.9522V12.8268H71.2373V19.2534H75.344ZM78.2607 19.2534V14.4127H79.9214V12.8268H74.849V14.4127H76.5459V19.2534H78.2607ZM80.4112 16.4873C80.4112 17.4185 80.682 18.1285 81.2145 18.6172C81.747 19.1059 82.4239 19.3456 83.2362 19.3456C84.0485 19.3456 84.7255 19.1059 85.258 18.6172C85.7905 18.1285 86.0612 17.4185 86.0612 16.4873V12.8268H84.3464V16.3029C84.3464 17.3632 83.9492 17.7597 83.2362 17.7597C82.5232 17.7597 82.1261 17.3632 82.1261 16.3029V12.8268H80.4112V16.4873ZM88.7295 19.2534V17.2526H89.3613H89.3794L90.661 19.2534H92.6286L91.0581 16.8745C91.708 16.5703 92.1322 15.8603 92.1322 15.0397C92.1322 14.4219 91.9156 13.9056 91.4733 13.4722C91.031 13.0389 90.4985 12.8268 89.8758 12.8268H87.0146V19.2534H88.7295ZM88.7295 14.4127H89.8306C90.1646 14.4127 90.4263 14.6893 90.4263 15.095C90.4263 15.5745 90.1465 15.8511 89.6862 15.8511H88.7295V14.4127ZM94.2651 19.2534L94.599 18.4143H97.0179L97.3428 19.2534H99.157L96.5937 12.8268H95.0232L92.46 19.2534H94.2651ZM95.8085 15.0673L96.5666 17.059H95.0503L95.8085 15.0673ZM27.6873 31.8708V30.3218H24.6908V29.3444H27.4165V27.906H24.6908V27.0209H27.6151V25.4442H22.9759V31.8708H27.6873ZM36.7923 31.8708V30.3218H33.7958V29.3444H36.5215V27.906H33.7958V27.0209H36.7201V25.4442H32.0809V31.8708H36.7923ZM37.1705 30.5984C37.4142 30.9764 37.7572 31.2991 38.2085 31.5665C38.6688 31.8339 39.2464 31.963 39.9504 31.963C41.6201 31.963 42.4595 31.17 42.4595 29.9253C42.4595 29.0493 42.0173 28.4685 40.9342 28.072C40.5371 27.9245 40.0407 27.7769 39.824 27.7308C39.7157 27.7032 39.6074 27.6663 39.5081 27.6202C39.3186 27.5372 39.2554 27.4358 39.2554 27.2514C39.2554 27.0209 39.4991 26.8549 39.9414 26.8549C40.4197 26.8549 40.7988 27.0209 41.0786 27.362L42.2068 26.3754C41.6923 25.6931 40.9161 25.352 39.8782 25.352C39.2554 25.352 38.7229 25.5179 38.2807 25.8591C37.8384 26.2002 37.6218 26.6705 37.6218 27.279C37.6218 28.1457 38.1092 28.7635 39.0749 29.1323C39.3728 29.243 39.824 29.3813 40.0677 29.455C40.1941 29.4919 40.3204 29.538 40.4378 29.5841C40.6815 29.6856 40.7898 29.8054 40.7898 29.9806C40.7898 30.2849 40.51 30.4416 39.9504 30.4416C39.2915 30.4416 38.7139 30.1189 38.3799 29.6487L37.1705 30.5984ZM44.831 31.8708V30.0083H46.0675C46.6183 30.0083 47.1237 29.7962 47.584 29.3628C48.0443 28.9295 48.279 28.3855 48.279 27.7308C48.279 26.9932 47.9541 26.3662 47.5118 26.0066C47.0695 25.6378 46.546 25.4442 46.0675 25.4442H43.1162V31.8708H44.831ZM44.831 27.0301H45.9863C46.0675 27.0301 46.1398 27.0393 46.3112 27.1131C46.4829 27.1868 46.5912 27.4081 46.5912 27.7308C46.5912 28.0351 46.4829 28.2564 46.3112 28.3302C46.1578 28.4039 46.0766 28.4224 45.9953 28.4224H44.831V27.0301ZM55.6923 28.6805C55.6923 27.7585 55.3494 26.9748 54.6724 26.3293C53.9955 25.6747 53.1832 25.352 52.2175 25.352C51.2517 25.352 50.4394 25.6747 49.7625 26.3293C49.0856 26.984 48.7516 27.7677 48.7516 28.6805C48.7516 29.5933 49.0856 30.3771 49.7625 31.0317C50.4394 31.6772 51.2517 31.9999 52.2175 31.9999C53.1832 31.9999 53.9955 31.6772 54.6724 31.0317C55.3494 30.3771 55.6923 29.5933 55.6923 28.6805ZM50.5026 28.6805C50.5026 28.2011 50.6741 27.7862 51.008 27.445C51.342 27.0946 51.7481 26.9194 52.2175 26.9194C52.6868 26.9194 53.093 27.0946 53.4269 27.445C53.7699 27.7954 53.9414 28.2103 53.9414 28.6805C53.9414 29.1508 53.7699 29.5657 53.4269 29.9161C53.093 30.2572 52.6868 30.4324 52.2175 30.4324C51.7391 30.4324 51.333 30.2664 50.999 29.9253C50.6651 29.5841 50.5026 29.1692 50.5026 28.6805ZM58.1934 31.8708V29.87H58.8252H58.8432L60.1249 31.8708H62.0925L60.522 29.4919C61.1719 29.1877 61.5961 28.4777 61.5961 27.6571C61.5961 27.0393 61.3794 26.523 60.9372 26.0896C60.4949 25.6562 59.9624 25.4442 59.3397 25.4442H56.4785V31.8708H58.1934ZM58.1934 27.0301H59.2945C59.6285 27.0301 59.8902 27.3067 59.8902 27.7124C59.8902 28.1918 59.6104 28.4685 59.1501 28.4685H58.1934V27.0301ZM65.326 31.8708V27.0301H66.9867V25.4442H61.9143V27.0301H63.6112V31.8708H65.326ZM72.2601 31.8708V30.3218H69.2636V29.3444H71.9893V27.906H69.2636V27.0209H72.1879V25.4442H67.5487V31.8708H72.2601ZM72.6387 30.5984C72.8824 30.9764 73.2254 31.2991 73.6766 31.5665C74.137 31.8339 74.7146 31.963 75.4186 31.963C77.0883 31.963 77.9277 31.17 77.9277 29.9253C77.9277 29.0493 77.4855 28.4685 76.4024 28.072C76.0053 27.9245 75.5089 27.7769 75.2922 27.7308C75.1839 27.7032 75.0756 27.6663 74.9763 27.6202C74.7868 27.5372 74.7236 27.4358 74.7236 27.2514C74.7236 27.0209 74.9673 26.8549 75.4096 26.8549C75.8879 26.8549 76.267 27.0209 76.5468 27.362L77.675 26.3754C77.1605 25.6931 76.3843 25.352 75.3464 25.352C74.7236 25.352 74.1911 25.5179 73.7489 25.8591C73.3066 26.2002 73.09 26.6705 73.09 27.279C73.09 28.1457 73.5774 28.7635 74.5431 29.1323C74.8409 29.243 75.2922 29.3813 75.5359 29.455C75.6623 29.4919 75.7886 29.538 75.906 29.5841C76.1497 29.6856 76.258 29.8054 76.258 29.9806C76.258 30.2849 75.9782 30.4416 75.4186 30.4416C74.7597 30.4416 74.1821 30.1189 73.8481 29.6487L72.6387 30.5984Z" fill="white"/>
<path d="M0.862061 8.5773L0.862061 9.54785L99.6691 9.54785V8.5773L0.862061 8.5773Z" fill="url(#paint0_linear_404_1734)"/>
<path d="M1.30469 4.30155C1.61631 5.14788 2.28516 5.59823 3.13642 5.59823C4.13969 5.59823 4.74013 5.01588 4.74013 4.14626C4.74013 3.70368 4.63373 3.38534 4.35251 3.12911C4.07889 2.85735 3.80527 2.70982 3.26563 2.46135L2.77919 2.22842C2.67279 2.17407 2.55878 2.09642 2.42957 2.00325C2.18635 1.80913 2.10274 1.58396 2.10274 1.27338C2.10274 0.745395 2.51317 0.3727 3.06801 0.3727C3.53165 0.3727 3.87367 0.574575 4.07889 0.970566L4.42091 0.791984C4.13969 0.263996 3.69126 0 3.06801 0C2.68039 0 2.35356 0.124232 2.09514 0.364932C1.83673 0.605633 1.70752 0.916213 1.70752 1.28891C1.70752 1.66937 1.81392 1.96443 2.03434 2.17407C2.25476 2.38371 2.59678 2.59336 3.07561 2.803C3.53925 3.01264 3.86607 3.20675 4.05608 3.38534C4.2461 3.56392 4.3449 3.82015 4.3449 4.14626C4.3449 4.43354 4.2461 4.68201 4.05608 4.89942C3.86607 5.11682 3.56205 5.22553 3.13642 5.22553C2.42957 5.22553 1.91273 4.82178 1.64671 4.1385L1.30469 4.30155ZM8.79046 5.50505V5.13235H6.24428V2.83405H8.59285V2.45359H6.24428V0.465871H8.73726V0.093175H5.84905V5.50505H8.79046ZM12.3777 0C11.61 0 10.9564 0.271759 10.4243 0.807512C9.8999 1.34326 9.63389 2.00325 9.63389 2.803C9.63389 3.60274 9.8999 4.26273 10.4243 4.79848C10.9564 5.33423 11.61 5.59823 12.3777 5.59823C13.1909 5.59823 13.9206 5.26435 14.4146 4.67424L14.141 4.41801C13.7078 4.95377 13.1149 5.22553 12.3777 5.22553C11.7012 5.22553 11.1464 4.99259 10.698 4.53448C10.2495 4.07638 10.0291 3.49404 10.0291 2.803C10.0291 2.11196 10.2495 1.52961 10.698 1.0715C11.1464 0.605633 11.7012 0.3727 12.3777 0.3727C13.0997 0.3727 13.685 0.636692 14.1334 1.16468L14.3994 0.90845C13.875 0.302817 13.1985 0 12.3777 0ZM15.834 5.50505V3.23781H17.0881C17.1641 3.23781 17.2173 3.23781 17.2477 3.23004L18.4942 5.50505H18.9275L17.643 3.16793C18.2738 2.95829 18.6842 2.36818 18.6842 1.65385C18.6842 1.21127 18.5322 0.83857 18.2358 0.543518C17.9394 0.240702 17.567 0.093175 17.1337 0.093175H15.4388V5.50505H15.834ZM15.834 0.465871H17.1185C17.4529 0.465871 17.7342 0.58234 17.9546 0.807512C18.175 1.03268 18.289 1.31997 18.289 1.65385C18.289 2.00325 18.175 2.29054 17.947 2.52347C17.7266 2.74864 17.4377 2.86511 17.0957 2.86511H15.834V0.465871ZM22.8708 5.50505V5.13235H20.3246V2.83405H22.6731V2.45359H20.3246V0.465871H22.8176V0.093175H19.9293V5.50505H22.8708ZM25.5155 5.50505V0.465871H27.0584V0.093175H23.585V0.465871H25.1203V5.50505H25.5155ZM27.3286 5.50505L27.9139 4.02979H30.5588L31.1517 5.50505H31.5773L29.396 0.093175H29.0843L26.903 5.50505H27.3286ZM29.2364 0.714337L30.4068 3.65709H28.0659L29.2364 0.714337ZM32.9649 5.50505V3.23781H34.219C34.295 3.23781 34.3482 3.23781 34.3786 3.23004L35.6251 5.50505H36.0584L34.7739 3.16793C35.4047 2.95829 35.8151 2.36818 35.8151 1.65385C35.8151 1.21127 35.6631 0.83857 35.3667 0.543518C35.0703 0.240702 34.6979 0.093175 34.2646 0.093175H32.5697V5.50505H32.9649ZM32.9649 0.465871H34.2494C34.5839 0.465871 34.8651 0.58234 35.0855 0.807512C35.3059 1.03268 35.4199 1.31997 35.4199 1.65385C35.4199 2.00325 35.3059 2.29054 35.0779 2.52347C34.8575 2.74864 34.5687 2.86511 34.2266 2.86511H32.9649V0.465871ZM37.4859 5.50505V0.093175H37.0907V5.50505H37.4859ZM38.9298 5.50505L39.515 4.02979H42.16L42.7529 5.50505H43.1785L40.9971 0.093175H40.6855L38.5042 5.50505H38.9298ZM40.8375 0.714337L42.008 3.65709H39.6671L40.8375 0.714337ZM48.5435 5.50505C49.3872 5.50505 50.0484 5.25658 50.5348 4.76742C51.0289 4.27049 51.2721 3.61827 51.2721 2.803C51.2721 1.98772 51.0289 1.3355 50.5348 0.838571C50.0408 0.341641 49.3795 0.093175 48.5359 0.093175H46.9322V5.50505H48.5435ZM47.3274 0.465871H48.5055C49.2579 0.465871 49.8356 0.675515 50.246 1.10256C50.664 1.52961 50.8693 2.09643 50.8693 2.803C50.8693 3.50957 50.664 4.07638 50.2536 4.50343C49.8432 4.92271 49.2655 5.13235 48.5131 5.13235H47.3274V0.465871ZM55.3512 5.50505V5.13235H52.805V2.83405H55.1536V2.45359H52.805V0.465871H55.298V0.093175H52.4098V5.50505H55.3512ZM62.6102 5.50505V5.13235H60.064V2.83405H62.4126V2.45359H60.064V0.465871H62.557V0.093175H59.6688V5.50505H62.6102ZM63.4007 4.30155C63.7123 5.14788 64.3811 5.59823 65.2324 5.59823C66.2357 5.59823 66.8361 5.01588 66.8361 4.14626C66.8361 3.70368 66.7297 3.38534 66.4485 3.12911C66.1749 2.85735 65.9012 2.70982 65.3616 2.46135L64.8752 2.22842C64.7687 2.17407 64.6547 2.09642 64.5255 2.00325C64.2823 1.80913 64.1987 1.58396 64.1987 1.27338C64.1987 0.745395 64.6091 0.3727 65.164 0.3727C65.6276 0.3727 65.9696 0.574575 66.1749 0.970566L66.5169 0.791984C66.2357 0.263996 65.7872 0 65.164 0C64.7764 0 64.4495 0.124232 64.1911 0.364932C63.9327 0.605633 63.8035 0.916213 63.8035 1.28891C63.8035 1.66937 63.9099 1.96443 64.1303 2.17407C64.3507 2.38371 64.6927 2.59336 65.1716 2.803C65.6352 3.01264 65.962 3.20675 66.1521 3.38534C66.3421 3.56392 66.4409 3.82015 66.4409 4.14626C66.4409 4.43354 66.3421 4.68201 66.1521 4.89942C65.962 5.11682 65.658 5.22553 65.2324 5.22553C64.5255 5.22553 64.0087 4.82178 63.7427 4.1385L63.4007 4.30155ZM69.122 5.50505V0.465871H70.6649V0.093175H67.1914V0.465871H68.7267V5.50505H69.122ZM70.9352 5.50505L71.5204 4.02979H74.1654L74.7582 5.50505H75.1839L73.0025 0.093175H72.6909L70.5095 5.50505H70.9352ZM72.8429 0.714337L74.0134 3.65709H71.6724L72.8429 0.714337ZM77.7875 5.50505C78.6312 5.50505 79.2924 5.25658 79.7789 4.76742C80.2729 4.27049 80.5161 3.61827 80.5161 2.803C80.5161 1.98772 80.2729 1.3355 79.7789 0.838571C79.2848 0.341641 78.6236 0.093175 77.7799 0.093175H76.1762V5.50505H77.7875ZM76.5714 0.465871H77.7495C78.502 0.465871 79.0796 0.675515 79.4901 1.10256C79.9081 1.52961 80.1133 2.09643 80.1133 2.803C80.1133 3.50957 79.9081 4.07638 79.4977 4.50343C79.0872 4.92271 78.5096 5.13235 77.7571 5.13235H76.5714V0.465871ZM84.0485 0C83.2808 0 82.6272 0.271759 82.1027 0.807512C81.5783 1.34326 81.3123 2.00325 81.3123 2.803C81.3123 3.60274 81.5783 4.26273 82.1027 4.79848C82.6272 5.33423 83.2808 5.59823 84.0485 5.59823C84.8161 5.59823 85.4622 5.33423 85.9866 4.79848C86.5187 4.26273 86.7847 3.60274 86.7847 2.803C86.7847 2.00325 86.5187 1.34326 85.9866 0.807512C85.4622 0.271759 84.8161 0 84.0485 0ZM84.0485 5.21777C83.372 5.21777 82.8172 4.98482 82.3688 4.52672C81.9203 4.06861 81.6999 3.49404 81.6999 2.803C81.6999 2.11196 81.9275 1.53738 82.3764 1.07927C82.8243 0.613397 83.3872 0.380464 84.0485 0.380464C84.7097 0.380464 85.2646 0.613397 85.713 1.07927C86.1614 1.53738 86.3818 2.11196 86.3818 2.803C86.3818 3.49404 86.1614 4.06861 85.713 4.52672C85.2722 4.98482 84.7173 5.21777 84.0485 5.21777ZM92.4471 5.50505C93.2907 5.50505 93.952 5.25658 94.4384 4.76742C94.9325 4.27049 95.1757 3.61827 95.1757 2.803C95.1757 1.98772 94.9325 1.3355 94.4384 0.838571C93.9444 0.341641 93.2831 0.093175 92.4395 0.093175H90.8358V5.50505H92.4471ZM91.231 0.465871H92.4091C93.1615 0.465871 93.7392 0.675515 94.1496 1.10256C94.5676 1.52961 94.7728 2.09643 94.7728 2.803C94.7728 3.50957 94.5676 4.07638 94.1572 4.50343C93.7468 4.92271 93.1691 5.13235 92.4167 5.13235H91.231V0.465871ZM99.2548 5.50505V5.13235H96.7086V2.83405H99.0572V2.45359H96.7086V0.465871H99.2016V0.093175H96.3134V5.50505H99.2548Z" fill="white"/>
<defs>
<linearGradient id="paint0_linear_404_1734" x1="0.862061" y1="9.06257" x2="99.6691" y2="9.06257" gradientUnits="userSpaceOnUse">
<stop stop-color="#FFFF00"/>
<stop offset="0.509615" stop-color="#54AD33"/>
<stop offset="1" stop-color="#FFFF00"/>
</linearGradient>
</defs>
</svg>
