<svg width="260" height="85" viewBox="0 0 260 85" fill="none" xmlns="http://www.w3.org/2000/svg">
<path d="M14.9585 50.6636V46.5875H7.0735V44.0157H14.246V40.2307H7.0735V37.9015H14.7685V33.7527H2.561V50.6636H14.9585ZM24.0106 50.6636C26.8843 50.6636 29.0931 49.9115 30.5893 48.3829C32.1093 46.8544 32.8693 44.8163 32.8693 42.2445C32.8693 39.7212 32.1093 37.6832 30.5656 36.1061C29.0456 34.5291 26.8606 33.7527 23.9868 33.7527H17.2656V50.6636H24.0106ZM21.7781 38.1199H23.7018C25.6256 38.1199 26.8843 38.5566 27.5256 39.3573C28.1668 40.1579 28.3331 41.0071 28.3331 42.2445C28.3331 43.5062 28.1668 44.3554 27.5256 45.2045C26.9318 46.0537 25.6256 46.4904 23.7256 46.4904H21.7781V38.1199ZM34.749 43.3849C34.749 45.8354 35.4615 47.7036 36.8627 48.9895C38.264 50.2754 40.0452 50.9062 42.1827 50.9062C44.3202 50.9062 46.1015 50.2754 47.5027 48.9895C48.904 47.7036 49.6165 45.8354 49.6165 43.3849V33.7527H45.104V42.8996C45.104 45.6898 44.059 46.7331 42.1827 46.7331C40.3065 46.7331 39.2615 45.6898 39.2615 42.8996V33.7527H34.749V43.3849ZM60.509 33.51C57.9915 33.51 55.854 34.3349 54.0965 36.0091C52.3627 37.6589 51.484 39.7212 51.484 42.2202C51.484 44.7193 52.3627 46.7816 54.0965 48.4314C55.854 50.0813 57.9915 50.9062 60.509 50.9062C63.1927 50.9062 65.6627 49.6688 67.3727 47.6065L64.309 44.9862C63.264 46.175 62.0052 46.7816 60.509 46.7816C59.2502 46.7816 58.1815 46.3449 57.3027 45.4957C56.424 44.6222 55.9965 43.5304 55.9965 42.2202C55.9965 40.9101 56.424 39.8183 57.3027 38.9448C58.1815 38.0714 59.2502 37.6346 60.509 37.6346C62.0052 37.6346 63.264 38.2412 64.309 39.4301L67.3727 36.8097C65.6627 34.7474 63.1927 33.51 60.509 33.51ZM72.224 50.6636L73.1027 48.4557H79.4677L80.3227 50.6636H85.0965L78.3515 33.7527H74.219L67.474 50.6636H72.224ZM76.2852 39.6484L78.2802 44.8891H74.2902L76.2852 39.6484ZM84.8823 42.2202C84.8823 44.4524 85.5948 46.3691 87.0436 47.9705C88.4923 49.5475 90.2973 50.4937 92.4823 50.8092L91.7936 52.5075C92.6486 52.5075 93.0523 52.7259 93.0523 53.3325C93.0523 53.7449 92.7198 54.0118 92.2448 54.0118C91.8648 54.0118 91.5086 53.9148 91.1998 53.7207L90.3923 55.4675C91.0336 55.9528 91.8648 56.1954 92.8386 56.1954C94.7148 56.1954 95.9023 55.2492 95.9023 53.6236C95.9023 52.5318 95.2136 51.7796 94.3348 51.7796L94.7148 50.8577H94.7386C97.1611 50.6393 99.1798 49.5475 100.771 47.6065L97.7073 44.9862C96.6623 46.175 95.4036 46.7816 93.9073 46.7816C92.6486 46.7816 91.5798 46.3449 90.7011 45.4957C89.8223 44.6222 89.3948 43.5304 89.3948 42.2202C89.3948 40.9101 89.8223 39.8183 90.7011 38.9448C91.5798 38.0714 92.6486 37.6346 93.9073 37.6346C95.4036 37.6346 96.6623 38.2412 97.7073 39.4301L100.771 36.8097C99.0611 34.7474 96.5911 33.51 93.9073 33.51C91.3898 33.51 89.2523 34.3349 87.4948 36.0091C85.7611 37.6589 84.8823 39.7212 84.8823 42.2202ZM106.715 32.588C106.81 32.03 107.119 31.7389 107.665 31.7389C108.045 31.7389 108.639 31.9087 109.446 32.2726C110.254 32.6366 110.966 32.8064 111.607 32.8064C113.65 32.8064 114.837 31.5448 115.17 29.0457L112.842 28.6575C112.676 29.3369 112.32 29.6766 111.797 29.6766C111.417 29.6766 110.824 29.5067 110.016 29.1428C109.232 28.7788 108.52 28.609 107.902 28.609C105.931 28.609 104.672 30.0648 104.387 32.1998L106.715 32.588ZM105.622 50.6636L106.501 48.4557H112.866L113.721 50.6636H118.495L111.75 33.7527H107.617L100.872 50.6636H105.622ZM109.684 39.6484L111.679 44.8891H107.689L109.684 39.6484ZM136.545 42.2688C136.545 39.8425 135.642 37.7802 133.861 36.0818C132.08 34.3592 129.942 33.51 127.401 33.51C124.86 33.51 122.722 34.3592 120.941 36.0818C119.16 37.8045 118.281 39.8668 118.281 42.2688C118.281 44.6708 119.16 46.7331 120.941 48.4557C122.722 50.1541 124.86 51.0033 127.401 51.0033C129.942 51.0033 132.08 50.1541 133.861 48.4557C135.642 46.7331 136.545 44.6708 136.545 42.2688ZM122.889 42.2688C122.889 41.0071 123.34 39.9153 124.219 39.0176C125.097 38.0956 126.166 37.6346 127.401 37.6346C128.636 37.6346 129.705 38.0956 130.584 39.0176C131.486 39.9396 131.937 41.0314 131.937 42.2688C131.937 43.5062 131.486 44.598 130.584 45.5199C129.705 46.4177 128.636 46.8786 127.401 46.8786C126.142 46.8786 125.074 46.4419 124.195 45.5442C123.316 44.6465 122.889 43.5547 122.889 42.2688ZM137.715 53.7692L140.707 47.9705H136.646L134.58 53.7692H137.715ZM159.475 33.51C156.957 33.51 154.82 34.3349 153.062 36.0091C151.329 37.6589 150.45 39.7212 150.45 42.2202C150.45 44.7193 151.329 46.7816 153.062 48.4314C154.82 50.0813 156.957 50.9062 159.475 50.9062C162.159 50.9062 164.629 49.6688 166.339 47.6065L163.275 44.9862C162.23 46.175 160.971 46.7816 159.475 46.7816C158.216 46.7816 157.147 46.3449 156.269 45.4957C155.39 44.6222 154.962 43.5304 154.962 42.2202C154.962 40.9101 155.39 39.8183 156.269 38.9448C157.147 38.0714 158.216 37.6346 159.475 37.6346C160.971 37.6346 162.23 38.2412 163.275 39.4301L166.339 36.8097C164.629 34.7474 162.159 33.51 159.475 33.51ZM167.809 43.3849C167.809 45.8354 168.521 47.7036 169.922 48.9895C171.324 50.2754 173.105 50.9062 175.242 50.9062C177.38 50.9062 179.161 50.2754 180.562 48.9895C181.964 47.7036 182.676 45.8354 182.676 43.3849V33.7527H178.164V42.8996C178.164 45.6898 177.119 46.7331 175.242 46.7331C173.366 46.7331 172.321 45.6898 172.321 42.8996V33.7527H167.809V43.3849ZM195.991 50.6636V46.4904H189.697V33.7527H185.185V50.6636H195.991ZM203.666 50.6636V37.9258H208.036V33.7527H194.689V37.9258H199.154V50.6636H203.666ZM209.325 43.3849C209.325 45.8354 210.037 47.7036 211.439 48.9895C212.84 50.2754 214.621 50.9062 216.759 50.9062C218.896 50.9062 220.677 50.2754 222.079 48.9895C223.48 47.7036 224.192 45.8354 224.192 43.3849V33.7527H219.68V42.8996C219.68 45.6898 218.635 46.7331 216.759 46.7331C214.882 46.7331 213.837 45.6898 213.837 42.8996V33.7527H209.325V43.3849ZM231.214 50.6636V45.3986H232.876H232.924L236.296 50.6636H241.474L237.341 44.4039C239.051 43.6032 240.167 41.735 240.167 39.5756C240.167 37.9501 239.597 36.5914 238.434 35.451C237.27 34.3107 235.869 33.7527 234.23 33.7527H226.701V50.6636H231.214ZM231.214 37.9258H234.111C234.99 37.9258 235.679 38.6537 235.679 39.7212C235.679 40.9829 234.942 41.7107 233.731 41.7107H231.214V37.9258ZM245.78 50.6636L246.659 48.4557H253.024L253.879 50.6636H258.652L251.907 33.7527H247.775L241.03 50.6636H245.78ZM249.841 39.6484L251.836 44.8891H247.846L249.841 39.6484ZM70.5877 83.8649V79.7888H62.7027V77.2169H69.8752V73.432H62.7027V71.1028H70.3977V66.9539H58.1902V83.8649H70.5877ZM94.5465 83.8649V79.7888H86.6615V77.2169H93.834V73.432H86.6615V71.1028H94.3564V66.9539H82.149V83.8649H94.5465ZM95.5417 80.5166C96.183 81.5114 97.0855 82.3606 98.273 83.0642C99.4842 83.7678 101.004 84.1075 102.857 84.1075C107.25 84.1075 109.459 82.0209 109.459 78.7455C109.459 76.4405 108.296 74.912 105.445 73.8687C104.4 73.4805 103.094 73.0923 102.524 72.971C102.239 72.8982 101.954 72.8012 101.693 72.6799C101.194 72.4615 101.028 72.1946 101.028 71.7094C101.028 71.1028 101.669 70.6661 102.833 70.6661C104.092 70.6661 105.089 71.1028 105.825 72.0005L108.794 69.4044C107.44 67.609 105.398 66.7113 102.667 66.7113C101.028 66.7113 99.6267 67.148 98.463 68.0457C97.2992 68.9434 96.7292 70.1808 96.7292 71.7821C96.7292 74.0628 98.0117 75.6884 100.553 76.6589C101.337 76.95 102.524 77.314 103.165 77.5081C103.498 77.6051 103.83 77.7264 104.139 77.8478C104.78 78.1146 105.065 78.4301 105.065 78.891C105.065 79.6917 104.329 80.1042 102.857 80.1042C101.123 80.1042 99.603 79.255 98.7242 78.0176L95.5417 80.5166ZM115.7 83.8649V78.9638H118.953C120.402 78.9638 121.732 78.4058 122.944 77.2655C124.155 76.1251 124.772 74.6936 124.772 72.971C124.772 71.03 123.917 69.3802 122.754 68.4339C121.59 67.4634 120.212 66.9539 118.953 66.9539H111.187V83.8649H115.7ZM115.7 71.1271H118.74C118.953 71.1271 119.143 71.1513 119.595 71.3454C120.046 71.5395 120.331 72.1218 120.331 72.971C120.331 73.7717 120.046 74.354 119.595 74.5481C119.191 74.7422 118.977 74.7907 118.763 74.7907H115.7V71.1271ZM144.28 75.47C144.28 73.0438 143.377 70.9815 141.596 69.2831C139.815 67.5605 137.677 66.7113 135.136 66.7113C132.595 66.7113 130.457 67.5605 128.676 69.2831C126.895 71.0057 126.016 73.0681 126.016 75.47C126.016 77.872 126.895 79.9343 128.676 81.657C130.457 83.3553 132.595 84.2045 135.136 84.2045C137.677 84.2045 139.815 83.3553 141.596 81.657C143.377 79.9343 144.28 77.872 144.28 75.47ZM130.624 75.47C130.624 74.2084 131.075 73.1166 131.954 72.2189C132.832 71.2969 133.901 70.8359 135.136 70.8359C136.371 70.8359 137.44 71.2969 138.319 72.2189C139.221 73.1409 139.672 74.2327 139.672 75.47C139.672 76.7074 139.221 77.7992 138.319 78.7212C137.44 79.6189 136.371 80.0799 135.136 80.0799C133.877 80.0799 132.809 79.6432 131.93 78.7455C131.051 77.8478 130.624 76.7559 130.624 75.47ZM150.861 83.8649V78.5999H152.524H152.571L155.944 83.8649H161.121L156.989 77.6051C158.699 76.8045 159.815 74.9363 159.815 72.7769C159.815 71.1513 159.245 69.7926 158.081 68.6523C156.917 67.512 155.516 66.9539 153.877 66.9539H146.349V83.8649H150.861ZM150.861 71.1271H153.759C154.637 71.1271 155.326 71.8549 155.326 72.9225C155.326 74.1841 154.59 74.912 153.379 74.912H150.861V71.1271ZM169.63 83.8649V71.1271H174V66.9539H160.652V71.1271H165.117V83.8649H169.63ZM187.876 83.8649V79.7888H179.991V77.2169H187.164V73.432H179.991V71.1028H187.686V66.9539H175.479V83.8649H187.876ZM188.872 80.5166C189.514 81.5114 190.416 82.3606 191.604 83.0642C192.815 83.7678 194.335 84.1075 196.187 84.1075C200.581 84.1075 202.79 82.0209 202.79 78.7455C202.79 76.4405 201.626 74.912 198.776 73.8687C197.731 73.4805 196.425 73.0923 195.855 72.971C195.57 72.8982 195.285 72.8012 195.024 72.6799C194.525 72.4615 194.359 72.1946 194.359 71.7094C194.359 71.1028 195 70.6661 196.164 70.6661C197.422 70.6661 198.42 71.1028 199.156 72.0005L202.125 69.4044C200.771 67.609 198.729 66.7113 195.997 66.7113C194.359 66.7113 192.957 67.148 191.794 68.0457C190.63 68.9434 190.06 70.1808 190.06 71.7821C190.06 74.0628 191.342 75.6884 193.884 76.6589C194.667 76.95 195.855 77.314 196.496 77.5081C196.829 77.6051 197.161 77.7264 197.47 77.8478C198.111 78.1146 198.396 78.4301 198.396 78.891C198.396 79.6917 197.66 80.1042 196.187 80.1042C194.454 80.1042 192.934 79.255 192.055 78.0176L188.872 80.5166Z" fill="#104183"/>
<path d="M0 22.5702L0 25.1241L260 25.1241V22.5702L0 22.5702Z" fill="url(#paint0_linear_104_1577)"/>
<path d="M1.16479 11.3191C1.9848 13.5461 3.7448 14.7311 5.9848 14.7311C8.6248 14.7311 10.2048 13.1988 10.2048 10.9104C10.2048 9.74583 9.9248 8.90815 9.1848 8.23391C8.4648 7.5188 7.7448 7.1306 6.3248 6.47679L5.0448 5.86385C4.7648 5.72083 4.4648 5.51651 4.1248 5.27133C3.4848 4.76054 3.2648 4.16803 3.2648 3.35077C3.2648 1.96143 4.3448 0.98072 5.8048 0.98072C7.0248 0.98072 7.9248 1.51193 8.4648 2.55394L9.3648 2.08402C8.6248 0.694676 7.4448 0 5.8048 0C4.7848 0 3.9248 0.326903 3.2448 0.96028C2.5648 1.59366 2.2248 2.41092 2.2248 3.39163C2.2248 4.39277 2.5048 5.16918 3.0848 5.72083C3.6648 6.27248 4.5648 6.82414 5.8248 7.37579C7.0448 7.92744 7.9048 8.43822 8.4048 8.90815C8.9048 9.37807 9.1648 10.0523 9.1648 10.9104C9.1648 11.6664 8.9048 12.3202 8.4048 12.8923C7.9048 13.4644 7.1048 13.7504 5.9848 13.7504C4.1248 13.7504 2.7648 12.688 2.0648 10.89L1.16479 11.3191ZM20.8628 14.4859V13.5052H14.1628V7.45751H20.3428V6.45636H14.1628V1.22589H20.7228V0.24518H13.1228V14.4859H20.8628ZM30.3022 0C28.2822 0 26.5622 0.715105 25.1622 2.12488C23.7822 3.53465 23.0822 5.27134 23.0822 7.37579C23.0822 9.48023 23.7822 11.2169 25.1622 12.6267C26.5622 14.0365 28.2822 14.7311 30.3022 14.7311C32.4422 14.7311 34.3622 13.8526 35.6622 12.2998L34.9422 11.6255C33.8022 13.0353 32.2422 13.7504 30.3022 13.7504C28.5222 13.7504 27.0622 13.1375 25.8822 11.932C24.7022 10.7265 24.1222 9.19419 24.1222 7.37579C24.1222 5.55738 24.7022 4.02501 25.8822 2.81955C27.0622 1.59366 28.5222 0.98072 30.3022 0.98072C32.2022 0.98072 33.7422 1.67539 34.9222 3.06473L35.6222 2.39049C34.2422 0.796831 32.4622 0 30.3022 0ZM39.3972 14.4859V8.51995H42.6972C42.8972 8.51995 43.0372 8.51994 43.1172 8.49951L46.3972 14.4859H47.5372L44.1572 8.33607C45.8172 7.78442 46.8972 6.23162 46.8972 4.35192C46.8972 3.18732 46.4972 2.20661 45.7172 1.43021C44.9372 0.63338 43.9572 0.24518 42.8172 0.24518H38.3572V14.4859H39.3972ZM39.3972 1.22589H42.7772C43.6572 1.22589 44.3972 1.53237 44.9772 2.12488C45.5572 2.71739 45.8572 3.47336 45.8572 4.35192C45.8572 5.27134 45.5572 6.0273 44.9572 6.64025C44.3772 7.23276 43.6172 7.53923 42.7172 7.53923H39.3972V1.22589ZM57.9136 14.4859V13.5052H51.2136V7.45751H57.3936V6.45636H51.2136V1.22589H57.7736V0.24518H50.1736V14.4859H57.9136ZM64.873 14.4859V1.22589H68.933V0.24518H59.7929V1.22589H63.833V14.4859H64.873ZM69.644 14.4859L71.184 10.604H78.144L79.704 14.4859H80.824L75.084 0.24518H74.264L68.524 14.4859H69.644ZM74.664 1.8797L77.744 9.62325H71.584L74.664 1.8797ZM84.4753 14.4859V8.51995H87.7753C87.9753 8.51995 88.1153 8.51994 88.1953 8.49951L91.4753 14.4859H92.6153L89.2353 8.33607C90.8953 7.78442 91.9753 6.23162 91.9753 4.35192C91.9753 3.18732 91.5753 2.20661 90.7953 1.43021C90.0153 0.63338 89.0353 0.24518 87.8953 0.24518H83.4353V14.4859H84.4753ZM84.4753 1.22589H87.8553C88.7353 1.22589 89.4753 1.53237 90.0553 2.12488C90.6353 2.71739 90.9353 3.47336 90.9353 4.35192C90.9353 5.27134 90.6353 6.0273 90.0353 6.64025C89.4553 7.23276 88.6953 7.53923 87.7953 7.53923H84.4753V1.22589ZM96.3717 14.4859V0.24518H95.3317V14.4859H96.3717ZM100.171 14.4859L101.711 10.604H108.671L110.231 14.4859H111.351L105.611 0.24518H104.791L99.0512 14.4859H100.171ZM105.191 1.8797L108.271 9.62325H102.111L105.191 1.8797ZM125.469 14.4859C127.689 14.4859 129.429 13.8321 130.709 12.5449C132.009 11.2373 132.649 9.5211 132.649 7.37579C132.649 5.23048 132.009 3.51423 130.709 2.20661C129.409 0.898992 127.669 0.24518 125.449 0.24518H121.229V14.4859H125.469ZM122.269 1.22589H125.369C127.349 1.22589 128.869 1.77755 129.949 2.90128C131.049 4.02501 131.589 5.51652 131.589 7.37579C131.589 9.23506 131.049 10.7266 129.969 11.8503C128.889 12.9536 127.369 13.5052 125.389 13.5052H122.269V1.22589ZM143.382 14.4859V13.5052H136.682V7.45751H142.862V6.45636H136.682V1.22589H143.242V0.24518H135.642V14.4859H143.382ZM162.484 14.4859V13.5052H155.784V7.45751H161.964V6.45636H155.784V1.22589H162.344V0.24518H154.744V14.4859H162.484ZM164.564 11.3191C165.384 13.5461 167.144 14.7311 169.384 14.7311C172.024 14.7311 173.604 13.1988 173.604 10.9104C173.604 9.74583 173.324 8.90815 172.584 8.23391C171.864 7.5188 171.144 7.1306 169.724 6.47679L168.444 5.86385C168.164 5.72083 167.864 5.51651 167.524 5.27133C166.884 4.76054 166.664 4.16803 166.664 3.35077C166.664 1.96143 167.744 0.98072 169.204 0.98072C170.424 0.98072 171.324 1.51193 171.864 2.55394L172.764 2.08402C172.024 0.694676 170.844 0 169.204 0C168.184 0 167.324 0.326903 166.644 0.96028C165.964 1.59366 165.624 2.41092 165.624 3.39163C165.624 4.39277 165.904 5.16918 166.484 5.72083C167.064 6.27248 167.964 6.82414 169.224 7.37579C170.444 7.92744 171.304 8.43822 171.804 8.90815C172.304 9.37807 172.564 10.0523 172.564 10.9104C172.564 11.6664 172.304 12.3202 171.804 12.8923C171.304 13.4644 170.504 13.7504 169.384 13.7504C167.524 13.7504 166.164 12.688 165.464 10.89L164.564 11.3191ZM179.619 14.4859V1.22589H183.679V0.24518H174.539V1.22589H178.579V14.4859H179.619ZM184.39 14.4859L185.93 10.604H192.89L194.45 14.4859H195.57L189.83 0.24518H189.01L183.27 14.4859H184.39ZM189.41 1.8797L192.49 9.62325H186.33L189.41 1.8797ZM202.421 14.4859C204.641 14.4859 206.381 13.8321 207.661 12.5449C208.961 11.2373 209.601 9.5211 209.601 7.37579C209.601 5.23048 208.961 3.51423 207.661 2.20661C206.361 0.898992 204.621 0.24518 202.401 0.24518H198.181V14.4859H202.421ZM199.221 1.22589H202.321C204.301 1.22589 205.821 1.77755 206.901 2.90128C208.001 4.02501 208.541 5.51652 208.541 7.37579C208.541 9.23506 208.001 10.7266 206.921 11.8503C205.841 12.9536 204.321 13.5052 202.341 13.5052H199.221V1.22589ZM218.896 0C216.876 0 215.156 0.715105 213.776 2.12488C212.396 3.53465 211.696 5.27134 211.696 7.37579C211.696 9.48023 212.396 11.2169 213.776 12.6267C215.156 14.0365 216.876 14.7311 218.896 14.7311C220.916 14.7311 222.616 14.0365 223.996 12.6267C225.396 11.2169 226.096 9.48023 226.096 7.37579C226.096 5.27134 225.396 3.53465 223.996 2.12488C222.616 0.715105 220.916 0 218.896 0ZM218.896 13.73C217.116 13.73 215.656 13.117 214.476 11.9116C213.296 10.7061 212.716 9.19419 212.716 7.37579C212.716 5.55738 213.315 4.04544 214.496 2.83998C215.675 1.61409 217.156 1.00115 218.896 1.00115C220.636 1.00115 222.096 1.61409 223.276 2.83998C224.456 4.04544 225.036 5.55738 225.036 7.37579C225.036 9.19419 224.456 10.7061 223.276 11.9116C222.116 13.117 220.656 13.73 218.896 13.73ZM240.996 14.4859C243.216 14.4859 244.956 13.8321 246.236 12.5449C247.536 11.2373 248.176 9.5211 248.176 7.37579C248.176 5.23048 247.536 3.51423 246.236 2.20661C244.936 0.898992 243.196 0.24518 240.976 0.24518H236.756V14.4859H240.996ZM237.796 1.22589H240.896C242.876 1.22589 244.396 1.77755 245.476 2.90128C246.576 4.02501 247.116 5.51652 247.116 7.37579C247.116 9.23506 246.576 10.7266 245.496 11.8503C244.416 12.9536 242.896 13.5052 240.916 13.5052H237.796V1.22589ZM258.91 14.4859V13.5052H252.21V7.45751H258.39V6.45636H252.21V1.22589H258.77V0.24518H251.17V14.4859H258.91Z" fill="#104183"/>
<defs>
<linearGradient id="paint0_linear_104_1577" x1="0" y1="23.8472" x2="260" y2="23.8472" gradientUnits="userSpaceOnUse">
<stop stop-color="#FFFF00"/>
<stop offset="0.509615" stop-color="#54AD33"/>
<stop offset="1" stop-color="#FFFF00"/>
</linearGradient>
</defs>
</svg>
