<svg width="128" height="55" viewBox="0 0 128 55" fill="none" xmlns="http://www.w3.org/2000/svg">
<path d="M0 40.1982V41.785H128V40.1982H0Z" fill="url(#paint0_linear_404_1709)"/>
<path d="M8.85647 35.9669L10.246 32.5495H20.3104L21.6623 35.9669H29.2106L18.5453 9.79199H12.011L1.3457 35.9669H8.85647ZM15.2782 18.9175L18.4327 27.0291H12.1236L15.2782 18.9175ZM40.8082 35.9669V16.2512H47.7181V9.79199H26.6129V16.2512H33.673V35.9669H40.8082ZM69.6595 35.9669V29.6579H57.1917V25.6772H68.5329V19.8188H57.1917V16.2137H69.3591V9.79199H50.0564V35.9669H69.6595ZM80.1423 35.9669V21.3585L91.6713 35.9669H97.4921V9.79199H90.6574V23.8371L79.6917 9.79199H73.3075V35.9669H80.1423ZM107.361 35.9669L108.751 32.5495H118.815L120.167 35.9669H127.715L117.05 9.79199H110.516L99.8506 35.9669H107.361ZM113.783 18.9175L116.938 27.0291H110.629L113.783 18.9175Z" fill="white"/>
<path d="M121.971 49.7189V44.9263H119.949V46.1089H120.664V49.7189H121.971ZM122.691 49.5951C122.959 49.8495 123.379 49.8495 123.633 49.5951C123.901 49.3407 123.901 48.9144 123.633 48.66C123.379 48.4055 122.959 48.4055 122.691 48.66C122.437 48.9144 122.437 49.3407 122.691 49.5951ZM123.967 48.8044C124.277 49.3888 124.937 49.767 125.707 49.767C126.237 49.767 126.69 49.602 127.062 49.2788C127.44 48.9487 127.626 48.5499 127.626 48.0892C127.626 47.6492 127.46 47.2779 127.124 46.9685C126.794 46.659 126.395 46.5009 125.934 46.5009C125.803 46.5009 125.693 46.5078 125.618 46.5284L125.714 46.1089H127.275V44.9263H124.806L124.284 47.4223L125.253 47.6767C125.356 47.5735 125.508 47.5185 125.707 47.5185C126.085 47.5185 126.333 47.6973 126.333 48.0549C126.333 48.378 126.058 48.5981 125.707 48.5981C125.398 48.5981 125.123 48.4262 125.006 48.158L123.967 48.8044Z" fill="white"/>
<defs>
<linearGradient id="paint0_linear_404_1709" x1="0" y1="40.9916" x2="128" y2="40.9916" gradientUnits="userSpaceOnUse">
<stop stop-color="#FFFF00"/>
<stop offset="0.509615" stop-color="#54AD33"/>
<stop offset="1" stop-color="#FFFF00"/>
</linearGradient>
</defs>
</svg>
