<svg width="68" height="32" viewBox="0 0 68 32" fill="none" xmlns="http://www.w3.org/2000/svg">
<g clip-path="url(#clip0_404_1730)">
<path d="M6.97919 17.0096C9.95272 17.0096 12.2382 16.2531 13.7864 14.7156C15.3592 13.1782 16.1456 11.1282 16.1456 8.54141C16.1456 6.00339 15.3592 3.95345 13.7618 2.36719C12.189 0.780929 9.92816 0 6.95462 0H0V17.0096H6.97919ZM4.66917 4.39273H6.65972C8.65029 4.39273 9.95272 4.832 10.6162 5.63733C11.2798 6.44267 11.4518 7.29681 11.4518 8.54141C11.4518 9.81042 11.2798 10.6646 10.6162 11.5187C10.0019 12.3728 8.65029 12.8121 6.68432 12.8121H4.66917V4.39273ZM31.115 17.0096V12.9097H22.9562V10.3229H30.3777V6.51588H22.9562V4.17309H30.9184V0H18.287V17.0096H31.115ZM41.5136 17.0096V4.19749H46.0353V0H32.2243V4.19749H36.8442V17.0096H41.5136ZM60.3933 17.0096V12.9097H52.2345V10.3229H59.6563V6.51588H52.2345V4.17309H60.1969V0H47.5654V17.0096H60.3933ZM67.5482 17.0096V0H62.8791V17.0096H67.5482Z" fill="white"/>
<path d="M0.00610352 19.2725V19.9189H67.542V19.2725H0.00610352Z" fill="url(#paint0_linear_404_1730)"/>
<path d="M4.53865 25.4135C4.95137 25.4135 5.27437 25.2997 5.50405 25.0757C5.73374 24.8517 5.84858 24.553 5.84858 24.1797C5.84858 23.8064 5.73374 23.5077 5.50046 23.2801C5.27078 23.049 4.94778 22.9352 4.53506 22.9352H3.64143V25.4135H4.53865ZM4.09004 23.337H4.50276C5.13081 23.337 5.39998 23.657 5.39998 24.1797C5.39998 24.6881 5.12722 25.0117 4.50635 25.0117H4.09004V23.337ZM7.89208 25.4135V25.0117H6.72211V24.329H7.79518V23.9272H6.72211V23.337H7.86696V22.9352H6.2735V25.4135H7.89208ZM8.79693 25.4135V24.5459H9.30296C9.51829 24.5459 9.7085 24.4712 9.87 24.3184C10.0351 24.1655 10.1176 23.9735 10.1176 23.7424C10.1176 23.5041 10.0351 23.3086 9.87 23.1592C9.70491 23.0099 9.5147 22.9352 9.30296 22.9352H8.34832V25.4135H8.79693ZM8.79693 23.337H9.28143C9.4824 23.337 9.67261 23.4828 9.67261 23.7424C9.67261 23.9984 9.4824 24.1441 9.28143 24.1441H8.79693V23.337ZM10.5418 25.4135L10.7464 24.9192H11.8589L12.0635 25.4135H12.5372L11.4929 22.9352H11.1125L10.0681 25.4135H10.5418ZM11.3027 23.5432L11.719 24.553H10.8864L11.3027 23.5432ZM13.3461 25.4135V24.5317H13.7839H13.7911L14.3258 25.4135H14.8319L14.2253 24.425C14.4981 24.3112 14.6811 24.0446 14.6811 23.721C14.6811 23.497 14.6022 23.3121 14.4443 23.1628C14.2864 23.0099 14.0961 22.9352 13.87 22.9352H12.8975V25.4135H13.3461ZM13.3461 23.337H13.8593C14.0746 23.337 14.2361 23.5006 14.2361 23.7281C14.2361 23.9664 14.0674 24.1335 13.8234 24.1335H13.3461V23.337ZM16.0103 25.4135V23.337H16.6886V22.9352H14.8834V23.337H15.5617V25.4135H16.0103ZM17.0046 25.4135L17.2092 24.9192H18.3217L18.5263 25.4135H19L17.9556 22.9352H17.5752L16.5309 25.4135H17.0046ZM17.7654 23.5432L18.1817 24.553H17.3491L17.7654 23.5432ZM19.7837 25.4135V23.7388L20.6414 25.0437L21.492 23.7352V25.4135H21.9155V22.9352H21.5351L20.6414 24.3255L19.7442 22.9352H19.3602V25.4135H19.7837ZM24.091 25.4135V25.0117H22.9211V24.329H23.9941V23.9272H22.9211V23.337H24.0659V22.9352H22.4724V25.4135H24.091ZM24.9815 25.4135V23.6606L26.3345 25.4135H26.7005V22.9352H26.2663V24.6561L24.942 22.9352H24.5472V25.4135H24.9815ZM28.1752 25.4135V23.337H28.8535V22.9352H27.0483V23.337H27.7266V25.4135H28.1752ZM30.2913 25.4632C30.661 25.4632 30.9768 25.3388 31.2316 25.0935C31.4864 24.8481 31.6156 24.5424 31.6156 24.1797C31.6156 23.817 31.4864 23.5112 31.228 23.2659C30.9732 23.017 30.661 22.8926 30.2913 22.8926C29.9217 22.8926 29.6094 23.017 29.3546 23.2659C29.0998 23.5112 28.9706 23.817 28.9706 24.1797C28.9706 24.5424 29.0998 24.8481 29.3546 25.0935C29.6094 25.3388 29.9217 25.4632 30.2913 25.4632ZM29.4121 24.1797C29.4121 23.9308 29.4946 23.721 29.6633 23.5504C29.832 23.3797 30.0437 23.2944 30.2913 23.2944C30.539 23.2944 30.7471 23.3797 30.9158 23.5504C31.0845 23.721 31.1706 23.9308 31.1706 24.1797C31.1706 24.4286 31.0845 24.6384 30.9158 24.809C30.7471 24.9761 30.539 25.0615 30.2913 25.0615C30.0437 25.0615 29.832 24.9761 29.6633 24.809C29.4946 24.6419 29.4121 24.4321 29.4121 24.1797ZM34.2693 25.4135C34.682 25.4135 35.005 25.2997 35.2347 25.0757C35.4644 24.8517 35.5793 24.553 35.5793 24.1797C35.5793 23.8064 35.4644 23.5077 35.2311 23.2801C35.0014 23.049 34.6784 22.9352 34.2657 22.9352H33.3721V25.4135H34.2693ZM33.8207 23.337H34.2334C34.8615 23.337 35.1306 23.657 35.1306 24.1797C35.1306 24.6881 34.8579 25.0117 34.237 25.0117H33.8207V23.337ZM37.6229 25.4135V25.0117H36.453V24.329H37.526V23.9272H36.453V23.337H37.5978V22.9352H36.0044V25.4135H37.6229ZM40.2037 25.4135V23.337H40.882V22.9352H39.0768V23.337H39.7551V25.4135H40.2037ZM42.8483 25.4135V25.0117H41.6784V24.329H42.7514V23.9272H41.6784V23.337H42.8232V22.9352H41.2298V25.4135H42.8483ZM44.4999 22.8926C44.1302 22.8926 43.8144 23.0135 43.556 23.2588C43.3012 23.5041 43.172 23.8099 43.172 24.1761C43.172 24.5424 43.3012 24.8481 43.556 25.0935C43.8144 25.3352 44.1302 25.4561 44.4999 25.4561C44.891 25.4561 45.2499 25.289 45.494 25.0046L45.1925 24.745C45.0166 24.9512 44.7834 25.0544 44.4999 25.0544C44.2486 25.0544 44.0369 24.9726 43.8682 24.8055C43.6995 24.6384 43.617 24.4286 43.617 24.1761C43.617 23.9237 43.6995 23.7139 43.8682 23.5468C44.0369 23.3797 44.2486 23.2944 44.4999 23.2944C44.7762 23.2944 45.0059 23.3939 45.1853 23.5966L45.4904 23.337C45.2284 23.0419 44.8982 22.8926 44.4999 22.8926ZM46.294 25.4135V23.6606L47.647 25.4135H48.013V22.9352H47.5788V24.6561L46.2545 22.9352H45.8597V25.4135H46.294ZM49.7533 25.4632C50.1229 25.4632 50.4388 25.3388 50.6936 25.0935C50.9484 24.8481 51.0776 24.5424 51.0776 24.1797C51.0776 23.817 50.9484 23.5112 50.69 23.2659C50.4352 23.017 50.1229 22.8926 49.7533 22.8926C49.3836 22.8926 49.0714 23.017 48.8166 23.2659C48.5618 23.5112 48.4326 23.817 48.4326 24.1797C48.4326 24.5424 48.5618 24.8481 48.8166 25.0935C49.0714 25.3388 49.3836 25.4632 49.7533 25.4632ZM48.874 24.1797C48.874 23.9308 48.9566 23.721 49.1252 23.5504C49.2939 23.3797 49.5057 23.2944 49.7533 23.2944C50.0009 23.2944 50.2091 23.3797 50.3778 23.5504C50.5464 23.721 50.6326 23.9308 50.6326 24.1797C50.6326 24.4286 50.5464 24.6384 50.3778 24.809C50.2091 24.9761 50.0009 25.0615 49.7533 25.0615C49.5057 25.0615 49.2939 24.9761 49.1252 24.809C48.9566 24.6419 48.874 24.4321 48.874 24.1797ZM52.9379 25.4135V25.0117H51.9438V22.9352H51.4952V25.4135H52.9379ZM54.4005 25.4632C54.7702 25.4632 55.086 25.3388 55.3408 25.0935C55.5956 24.8481 55.7248 24.5424 55.7248 24.1797C55.7248 23.817 55.5956 23.5112 55.3372 23.2659C55.0824 23.017 54.7702 22.8926 54.4005 22.8926C54.0309 22.8926 53.7187 23.017 53.4638 23.2659C53.209 23.5112 53.0798 23.817 53.0798 24.1797C53.0798 24.5424 53.209 24.8481 53.4638 25.0935C53.7187 25.3388 54.0309 25.4632 54.4005 25.4632ZM53.5213 24.1797C53.5213 23.9308 53.6038 23.721 53.7725 23.5504C53.9412 23.3797 54.1529 23.2944 54.4005 23.2944C54.6482 23.2944 54.8563 23.3797 55.025 23.5504C55.1937 23.721 55.2798 23.9308 55.2798 24.1797C55.2798 24.4286 55.1937 24.6384 55.025 24.809C54.8563 24.9761 54.6482 25.0615 54.4005 25.0615C54.1529 25.0615 53.9412 24.9761 53.7725 24.809C53.6038 24.6419 53.5213 24.4321 53.5213 24.1797ZM57.3375 22.8926C56.9679 22.8926 56.6521 23.0135 56.3937 23.2588C56.1389 23.5041 56.0097 23.8099 56.0097 24.1761C56.0097 24.5424 56.1389 24.8481 56.3937 25.0935C56.6521 25.3352 56.9679 25.4561 57.3375 25.4561C57.7503 25.4561 58.1199 25.2784 58.3604 24.9904V23.9912H57.2406V24.3859H57.9369V24.841C57.7754 24.9832 57.5744 25.0544 57.3375 25.0544C57.0863 25.0544 56.8746 24.9726 56.7059 24.8055C56.5372 24.6384 56.4547 24.4286 56.4547 24.1761C56.4547 23.9237 56.5372 23.7139 56.7059 23.5468C56.8746 23.3797 57.0863 23.2944 57.3375 23.2944C57.5923 23.2944 57.8005 23.3761 57.9692 23.5361L58.267 23.2659C58.0158 23.017 57.7072 22.8926 57.3375 22.8926ZM59.283 25.4135V22.9352H58.8344V25.4135H59.283ZM60.1339 25.4135L60.3385 24.9192H61.451L61.6556 25.4135H62.1293L61.085 22.9352H60.7045L59.6602 25.4135H60.1339ZM60.8947 23.5432L61.3111 24.553H60.4784L60.8947 23.5432ZM62.2187 24.8908C62.3766 25.2428 62.7176 25.4561 63.1805 25.4561C63.7512 25.4561 64.0562 25.161 64.0562 24.7237C64.0562 24.5388 64.0024 24.3895 63.8983 24.2792C63.7942 24.169 63.6255 24.0659 63.3887 23.9699L63.2415 23.913L63.1123 23.8632C63.0657 23.8384 62.9652 23.7957 62.9257 23.7672C62.8647 23.7068 62.8216 23.657 62.8216 23.5539C62.8216 23.401 62.9652 23.2908 63.1626 23.2908C63.3636 23.2908 63.5107 23.3655 63.6076 23.5112L63.927 23.2944C63.7547 23.0277 63.4963 22.8926 63.1554 22.8926C62.9365 22.8926 62.7534 22.953 62.6027 23.0775C62.4556 23.2019 62.3802 23.3619 62.3802 23.561C62.3802 23.7708 62.4484 23.9308 62.5919 24.0481C62.7355 24.1619 62.8683 24.2259 63.098 24.3112C63.2846 24.3788 63.36 24.4108 63.464 24.4819C63.5681 24.5495 63.6076 24.6241 63.6076 24.7344C63.6076 24.8944 63.4963 25.0579 63.1841 25.0579C62.8934 25.0579 62.6853 24.9335 62.5561 24.681L62.2187 24.8908ZM4.20684 30.262V29.8602H3.03686V29.1775H4.10994V28.7757H3.03686V28.1855H4.18172V27.7837H2.58826V30.262H4.20684ZM5.56027 30.262C5.97299 30.262 6.29598 30.1482 6.52567 29.9242C6.75536 29.7002 6.8702 29.4015 6.8702 29.0282C6.8702 28.6548 6.75536 28.3562 6.52208 28.1286C6.29239 27.8975 5.9694 27.7837 5.55668 27.7837H4.66305V30.262H5.56027ZM5.11166 28.1855H5.52438C6.15243 28.1855 6.42159 28.5055 6.42159 29.0282C6.42159 29.5366 6.14884 29.8602 5.52797 29.8602H5.11166V28.1855ZM7.27359 29.3126C7.27359 29.6291 7.3669 29.8744 7.55711 30.0451C7.74732 30.2157 7.99136 30.3011 8.28924 30.3011C8.58711 30.3011 8.82756 30.2157 9.01777 30.0451C9.20798 29.8744 9.30129 29.6291 9.30129 29.3126V27.7837H8.85269V29.2664C8.85269 29.6931 8.63736 29.8993 8.28924 29.8993C7.93394 29.8993 7.7222 29.6931 7.7222 29.2664V27.7837H7.27359V29.3126ZM11.0312 27.7411C10.6615 27.7411 10.3457 27.862 10.0873 28.1073C9.83248 28.3526 9.70328 28.6584 9.70328 29.0246C9.70328 29.3908 9.83248 29.6966 10.0873 29.942C10.3457 30.1837 10.6615 30.3046 11.0312 30.3046C11.4223 30.3046 11.7812 30.1375 12.0253 29.8531L11.7238 29.5935C11.548 29.7997 11.3147 29.9028 11.0312 29.9028C10.7799 29.9028 10.5682 29.8211 10.3995 29.654C10.2308 29.4868 10.1483 29.2771 10.1483 29.0246C10.1483 28.7722 10.2308 28.5624 10.3995 28.3953C10.5682 28.2282 10.7799 28.1428 11.0312 28.1428C11.3075 28.1428 11.5372 28.2424 11.7166 28.4451L12.0217 28.1855C11.7597 27.8904 11.4295 27.7411 11.0312 27.7411ZM12.671 30.262L12.8755 29.7677H13.9881L14.1927 30.262H14.6664L13.622 27.7837H13.2416L12.1972 30.262H12.671ZM13.4318 28.3917L13.8481 29.4015H13.0155L13.4318 28.3917ZM16.071 27.7411C15.7013 27.7411 15.3855 27.862 15.1271 28.1073C14.8723 28.3526 14.7431 28.6584 14.7431 29.0246C14.7431 29.3908 14.8723 29.6966 15.1271 29.942C15.3855 30.1837 15.7013 30.3046 16.071 30.3046C16.4622 30.3046 16.8211 30.1375 17.0651 29.8531L16.7636 29.5935C16.5878 29.7997 16.3545 29.9028 16.071 29.9028C15.8198 29.9028 15.608 29.8211 15.4394 29.654C15.2707 29.4868 15.1881 29.2771 15.1881 29.0246C15.1881 28.7722 15.2707 28.5624 15.4394 28.3953C15.608 28.2282 15.8198 28.1428 16.071 28.1428C16.3473 28.1428 16.577 28.2424 16.7565 28.4451L17.0615 28.1855C16.7995 27.8904 16.4694 27.7411 16.071 27.7411ZM17.8938 30.262V27.7837H17.4452V30.262H17.8938ZM19.6527 30.3117C20.0223 30.3117 20.3381 30.1873 20.593 29.942C20.8478 29.6966 20.977 29.3908 20.977 29.0282C20.977 28.6655 20.8478 28.3597 20.5894 28.1144C20.3346 27.8655 20.0223 27.7411 19.6527 27.7411C19.283 27.7411 18.9708 27.8655 18.716 28.1144C18.4612 28.3597 18.332 28.6655 18.332 29.0282C18.332 29.3908 18.4612 29.6966 18.716 29.942C18.9708 30.1873 19.283 30.3117 19.6527 30.3117ZM18.7734 29.0282C18.7734 28.7793 18.8559 28.5695 19.0246 28.3988C19.1933 28.2282 19.405 28.1428 19.6527 28.1428C19.9003 28.1428 20.1085 28.2282 20.2771 28.3988C20.4458 28.5695 20.5319 28.7793 20.5319 29.0282C20.5319 29.2771 20.4458 29.4868 20.2771 29.6575C20.1085 29.8246 19.9003 29.91 19.6527 29.91C19.405 29.91 19.1933 29.8246 19.0246 29.6575C18.8559 29.4904 18.7734 29.2806 18.7734 29.0282ZM21.829 30.262V28.5091L23.182 30.262H23.548V27.7837H23.1138V29.5046L21.7895 27.7837H21.3947V30.262H21.829ZM24.3803 30.262L24.5849 29.7677H25.6974L25.902 30.262H26.3757L25.3314 27.7837H24.9509L23.9066 30.262H24.3803ZM25.1412 28.3917L25.5575 29.4015H24.7248L25.1412 28.3917ZM27.1989 30.262V27.7837H26.7503V30.262H27.1989ZM27.5689 29.7393C27.7268 30.0913 28.0677 30.3046 28.5307 30.3046C29.1013 30.3046 29.4064 30.0095 29.4064 29.5722C29.4064 29.3873 29.3525 29.238 29.2485 29.1277C29.1444 29.0175 28.9757 28.9144 28.7389 28.8184L28.5917 28.7615L28.4625 28.7117C28.4159 28.6868 28.3154 28.6442 28.2759 28.6157C28.2149 28.5553 28.1718 28.5055 28.1718 28.4024C28.1718 28.2495 28.3154 28.1393 28.5128 28.1393C28.7137 28.1393 28.8609 28.214 28.9578 28.3597L29.2772 28.1428C29.1049 27.8762 28.8465 27.7411 28.5056 27.7411C28.2867 27.7411 28.1036 27.8015 27.9529 27.926C27.8058 28.0504 27.7304 28.2104 27.7304 28.4095C27.7304 28.6193 27.7986 28.7793 27.9421 28.8966C28.0857 29.0104 28.2185 29.0744 28.4482 29.1597C28.6348 29.2273 28.7101 29.2593 28.8142 29.3304C28.9183 29.398 28.9578 29.4726 28.9578 29.5828C28.9578 29.7428 28.8465 29.9064 28.5343 29.9064C28.2436 29.9064 28.0354 29.782 27.9062 29.5295L27.5689 29.7393ZM32.823 30.262V29.8602H31.6531V29.1775H32.7261V28.7757H31.6531V28.1855H32.7979V27.7837H31.2045V30.262H32.823ZM35.638 30.262C36.0507 30.262 36.3737 30.1482 36.6034 29.9242C36.8331 29.7002 36.9479 29.4015 36.9479 29.0282C36.9479 28.6548 36.8331 28.3562 36.5998 28.1286C36.3701 27.8975 36.0471 27.7837 35.6344 27.7837H34.7408V30.262H35.638ZM35.1894 28.1855H35.6021C36.2301 28.1855 36.4993 28.5055 36.4993 29.0282C36.4993 29.5366 36.2266 29.8602 35.6057 29.8602H35.1894V28.1855ZM37.5022 30.262L37.7068 29.7677H38.8193L39.0239 30.262H39.4976L38.4533 27.7837H38.0729L37.0285 30.262H37.5022ZM38.2631 28.3917L38.6794 29.4015H37.8468L38.2631 28.3917ZM41.5508 30.262V27.7837H41.1022V30.262H41.5508ZM42.556 30.262V28.5091L43.909 30.262H44.2751V27.7837H43.8408V29.5046L42.5165 27.7837H42.1217V30.262H42.556ZM45.276 30.262V29.2095H46.2486V28.8077H45.276V28.1855H46.3419V27.7837H44.8274V30.262H45.276ZM47.922 30.3117C48.2916 30.3117 48.6075 30.1873 48.8623 29.942C49.1171 29.6966 49.2463 29.3908 49.2463 29.0282C49.2463 28.6655 49.1171 28.3597 48.8587 28.1144C48.6039 27.8655 48.2916 27.7411 47.922 27.7411C47.5523 27.7411 47.2401 27.8655 46.9853 28.1144C46.7305 28.3597 46.6013 28.6655 46.6013 29.0282C46.6013 29.3908 46.7305 29.6966 46.9853 29.942C47.2401 30.1873 47.5523 30.3117 47.922 30.3117ZM47.0427 29.0282C47.0427 28.7793 47.1253 28.5695 47.2939 28.3988C47.4626 28.2282 47.6744 28.1428 47.922 28.1428C48.1696 28.1428 48.3778 28.2282 48.5465 28.3988C48.7151 28.5695 48.8013 28.7793 48.8013 29.0282C48.8013 29.2771 48.7151 29.4868 48.5465 29.6575C48.3778 29.8246 48.1696 29.91 47.922 29.91C47.6744 29.91 47.4626 29.8246 47.2939 29.6575C47.1253 29.4904 47.0427 29.2806 47.0427 29.0282ZM50.1125 30.262V29.3802H50.5503H50.5575L51.0923 30.262H51.5983L50.9918 29.2735C51.2645 29.1597 51.4476 28.8931 51.4476 28.5695C51.4476 28.3455 51.3686 28.1606 51.2107 28.0113C51.0528 27.8584 50.8626 27.7837 50.6365 27.7837H49.6639V30.262H50.1125ZM50.1125 28.1855H50.6257C50.841 28.1855 51.0025 28.3491 51.0025 28.5766C51.0025 28.8148 50.8339 28.982 50.5898 28.982H50.1125V28.1855ZM52.3689 30.262V28.5873L53.2267 29.8922L54.0772 28.5837V30.262H54.5007V27.7837H54.1203L53.2267 29.174L52.3294 27.7837H51.9454V30.262H52.3689ZM55.3379 30.262L55.5425 29.7677H56.655L56.8596 30.262H57.3333L56.2889 27.7837H55.9085L54.8642 30.262H55.3379ZM56.0987 28.3917L56.515 29.4015H55.6824L56.0987 28.3917ZM57.41 29.0246C57.41 29.3482 57.5105 29.6255 57.7114 29.8566C57.916 30.0877 58.1708 30.23 58.483 30.2833L58.379 30.5322C58.5369 30.5322 58.6086 30.5642 58.6086 30.6673C58.6086 30.7384 58.5512 30.7846 58.4687 30.7846C58.4077 30.7846 58.3502 30.7668 58.2892 30.7313L58.1959 30.9197C58.2785 30.9802 58.3825 31.0086 58.5046 31.0086C58.7594 31.0086 58.9137 30.8984 58.9137 30.6851C58.9137 30.5286 58.8096 30.4255 58.6768 30.4255L58.7307 30.3046H58.7378C59.129 30.3046 59.4879 30.1375 59.732 29.8531L59.4305 29.5935C59.2546 29.7997 59.0214 29.9028 58.7378 29.9028C58.4866 29.9028 58.2749 29.8211 58.1062 29.654C57.9375 29.4868 57.855 29.2771 57.855 29.0246C57.855 28.7722 57.9375 28.5624 58.1062 28.3953C58.2749 28.2282 58.4866 28.1428 58.7378 28.1428C59.0142 28.1428 59.2439 28.2424 59.4233 28.4451L59.7284 28.1855C59.4664 27.8904 59.1362 27.7411 58.7378 27.7411C58.3682 27.7411 58.0524 27.862 57.794 28.1073C57.5392 28.3526 57.41 28.6584 57.41 29.0246ZM60.7329 27.5846C60.7509 27.5028 60.8011 27.4602 60.8836 27.4602C60.9303 27.4602 61.0057 27.4851 61.1062 27.5348C61.2066 27.5811 61.2964 27.606 61.3753 27.606C61.6158 27.606 61.7557 27.4637 61.7916 27.1757L61.544 27.1437C61.5189 27.2397 61.465 27.2895 61.3825 27.2895C61.3358 27.2895 61.2605 27.2646 61.16 27.2184C61.0595 27.1722 60.9698 27.1473 60.8944 27.1473C60.6683 27.1473 60.514 27.3144 60.4817 27.5562L60.7329 27.5846ZM60.3776 30.262L60.5822 29.7677H61.6947L61.8993 30.262H62.373L61.3287 27.7837H60.9483L59.9039 30.262H60.3776ZM61.1385 28.3917L61.5548 29.4015H60.7222L61.1385 28.3917ZM63.7704 30.3117C64.1401 30.3117 64.4559 30.1873 64.7107 29.942C64.9655 29.6966 65.0947 29.3908 65.0947 29.0282C65.0947 28.6655 64.9655 28.3597 64.7071 28.1144C64.4523 27.8655 64.1401 27.7411 63.7704 27.7411C63.4007 27.7411 63.0885 27.8655 62.8337 28.1144C62.5789 28.3597 62.4497 28.6655 62.4497 29.0282C62.4497 29.3908 62.5789 29.6966 62.8337 29.942C63.0885 30.1873 63.4007 30.3117 63.7704 30.3117ZM62.8911 29.0282C62.8911 28.7793 62.9737 28.5695 63.1423 28.3988C63.311 28.2282 63.5228 28.1428 63.7704 28.1428C64.018 28.1428 64.2262 28.2282 64.3949 28.3988C64.5635 28.5695 64.6497 28.7793 64.6497 29.0282C64.6497 29.2771 64.5635 29.4868 64.3949 29.6575C64.2262 29.8246 64.018 29.91 63.7704 29.91C63.5228 29.91 63.311 29.8246 63.1423 29.6575C62.9737 29.4904 62.8911 29.2806 62.8911 29.0282Z" fill="white"/>
</g>
<defs>
<linearGradient id="paint0_linear_404_1730" x1="0.00610352" y1="19.5957" x2="67.542" y2="19.5957" gradientUnits="userSpaceOnUse">
<stop stop-color="#FFFF00"/>
<stop offset="0.509615" stop-color="#54AD33"/>
<stop offset="1" stop-color="#FFFF00"/>
</linearGradient>
<clipPath id="clip0_404_1730">
<rect width="67.8621" height="32" fill="white"/>
</clipPath>
</defs>
</svg>
