<svg class="icone--azul" width="20" height="20" viewBox="0 0 20 20" fill="none" xmlns="http://www.w3.org/2000/svg">
<path d="M9.97909 17.3123C9.86797 17.3123 9.76381 17.3019 9.66659 17.2811C9.56936 17.2603 9.47214 17.2221 9.37492 17.1665L4.58325 14.5415C4.38881 14.4304 4.23256 14.2776 4.1145 14.0832C3.99645 13.8887 3.93742 13.6734 3.93742 13.4373V9.18734L1.83325 8.0415C1.72214 7.98595 1.64228 7.90956 1.59367 7.81234C1.54506 7.71512 1.52075 7.61095 1.52075 7.49984C1.52075 7.38873 1.54506 7.28456 1.59367 7.18734C1.64228 7.09012 1.72214 7.01373 1.83325 6.95817L9.37492 2.83317C9.47214 2.77762 9.56936 2.73595 9.66659 2.70817C9.76381 2.68039 9.86797 2.6665 9.97909 2.6665C10.0902 2.6665 10.1944 2.68039 10.2916 2.70817C10.3888 2.73595 10.486 2.77762 10.5833 2.83317L18.8333 7.31234C18.9444 7.38178 19.0277 7.46512 19.0833 7.56234C19.1388 7.65956 19.1666 7.76373 19.1666 7.87484V13.479C19.1666 13.6596 19.1076 13.8089 18.9895 13.9269C18.8714 14.045 18.7221 14.104 18.5416 14.104C18.361 14.104 18.2117 14.045 18.0937 13.9269C17.9756 13.8089 17.9166 13.6596 17.9166 13.479V8.229L16.0208 9.18734V13.4373C16.0208 13.6734 15.9617 13.8887 15.8437 14.0832C15.7256 14.2776 15.5694 14.4304 15.3749 14.5415L10.5833 17.1665C10.486 17.2221 10.3888 17.2603 10.2916 17.2811C10.1944 17.3019 10.0902 17.3123 9.97909 17.3123ZM9.97909 11.0832L16.5416 7.49984L9.97909 3.979L3.45825 7.49984L9.97909 11.0832ZM9.97909 16.0832L14.7708 13.4373V9.93734L10.5833 12.1873C10.486 12.2429 10.3888 12.2811 10.2916 12.3019C10.1944 12.3228 10.0902 12.3332 9.97909 12.3332C9.86797 12.3332 9.76728 12.3228 9.677 12.3019C9.58672 12.2811 9.49297 12.2429 9.39575 12.1873L5.18742 9.89567V13.4373L9.97909 16.0832Z" fill="#104183"/>
</svg>
