<svg class="icone--azul" width="20" height="20" viewBox="0 0 20 20" fill="none" xmlns="http://www.w3.org/2000/svg">
<path d="M10 13.7915C11.4444 12.6248 12.5347 11.5033 13.2708 10.4269C14.0069 9.35053 14.375 8.34706 14.375 7.4165C14.375 6.59706 14.2257 5.90262 13.9271 5.33317C13.6285 4.76373 13.2604 4.29845 12.8229 3.93734C12.3854 3.57623 11.9097 3.31581 11.3958 3.15609C10.8819 2.99636 10.4167 2.9165 10 2.9165C9.58333 2.9165 9.11806 2.99636 8.60417 3.15609C8.09028 3.31581 7.61458 3.57623 7.17708 3.93734C6.73958 4.29845 6.37153 4.76373 6.07292 5.33317C5.77431 5.90262 5.625 6.59706 5.625 7.4165C5.625 8.34706 5.99306 9.35053 6.72917 10.4269C7.46528 11.5033 8.55556 12.6248 10 13.7915ZM10 15.1457C9.90278 15.1457 9.8125 15.1353 9.72917 15.1144C9.64583 15.0936 9.56944 15.0554 9.5 14.9998C7.76389 13.6526 6.47569 12.3575 5.63542 11.1144C4.79514 9.87136 4.375 8.63873 4.375 7.4165C4.375 6.47206 4.54514 5.6422 4.88542 4.92692C5.22569 4.21164 5.66667 3.61095 6.20833 3.12484C6.75 2.63873 7.35417 2.27414 8.02083 2.03109C8.6875 1.78803 9.34722 1.6665 10 1.6665C10.6528 1.6665 11.3125 1.78803 11.9792 2.03109C12.6458 2.27414 13.25 2.63873 13.7917 3.12484C14.3333 3.61095 14.7743 4.21164 15.1146 4.92692C15.4549 5.6422 15.625 6.47206 15.625 7.4165C15.625 8.63873 15.2049 9.87136 14.3646 11.1144C13.5243 12.3575 12.2361 13.6526 10.5 14.9998C10.4306 15.0554 10.3542 15.0936 10.2708 15.1144C10.1875 15.1353 10.0972 15.1457 10 15.1457ZM10 8.74984C10.4028 8.74984 10.7465 8.60748 11.0312 8.32275C11.316 8.03803 11.4583 7.69428 11.4583 7.2915C11.4583 6.88873 11.316 6.54498 11.0312 6.26025C10.7465 5.97553 10.4028 5.83317 10 5.83317C9.59722 5.83317 9.25347 5.97553 8.96875 6.26025C8.68403 6.54498 8.54167 6.88873 8.54167 7.2915C8.54167 7.69428 8.68403 8.03803 8.96875 8.32275C9.25347 8.60748 9.59722 8.74984 10 8.74984ZM5 18.3332C4.81944 18.3332 4.67014 18.2741 4.55208 18.1561C4.43403 18.038 4.375 17.8887 4.375 17.7082C4.375 17.5276 4.43403 17.3783 4.55208 17.2603C4.67014 17.1422 4.81944 17.0832 5 17.0832H15C15.1806 17.0832 15.3299 17.1422 15.4479 17.2603C15.566 17.3783 15.625 17.5276 15.625 17.7082C15.625 17.8887 15.566 18.038 15.4479 18.1561C15.3299 18.2741 15.1806 18.3332 15 18.3332H5Z" fill="#104183"/>
</svg>
