<svg class="icone--azul" width="20" height="20" viewBox="0 0 20 20" fill="none" xmlns="http://www.w3.org/2000/svg">
<path d="M0 15V13.8958C0 13.3542 0.291667 12.9167 0.875 12.5833C1.45833 12.25 2.20833 12.0833 3.125 12.0833C3.30556 12.0833 3.47222 12.0868 3.625 12.0937C3.77778 12.1007 3.93056 12.1181 4.08333 12.1458C3.97222 12.3819 3.88889 12.6215 3.83333 12.8646C3.77778 13.1076 3.75 13.3681 3.75 13.6458V15H0ZM5 15V13.6458C5 12.7431 5.46181 12.0139 6.38542 11.4583C7.30903 10.9028 8.51389 10.625 10 10.625C11.5 10.625 12.7083 10.9028 13.625 11.4583C14.5417 12.0139 15 12.7431 15 13.6458V15H5ZM16.25 15V13.6458C16.25 13.3681 16.2257 13.1076 16.1771 12.8646C16.1285 12.6215 16.0486 12.3819 15.9375 12.1458C16.0903 12.1181 16.2431 12.1007 16.3958 12.0937C16.5486 12.0868 16.7083 12.0833 16.875 12.0833C17.8194 12.0833 18.5764 12.25 19.1458 12.5833C19.7153 12.9167 20 13.3542 20 13.8958V15H16.25ZM10 11.875C8.88889 11.875 7.98611 12.0417 7.29167 12.375C6.59722 12.7083 6.25 13.1319 6.25 13.6458V13.75H13.75V13.625C13.75 13.125 13.4062 12.7083 12.7188 12.375C12.0312 12.0417 11.125 11.875 10 11.875ZM3.125 11.4583C2.72222 11.4583 2.37847 11.316 2.09375 11.0312C1.80903 10.7465 1.66667 10.4028 1.66667 10C1.66667 9.59722 1.80903 9.25347 2.09375 8.96875C2.37847 8.68403 2.72222 8.54167 3.125 8.54167C3.52778 8.54167 3.87153 8.68403 4.15625 8.96875C4.44097 9.25347 4.58333 9.59722 4.58333 10C4.58333 10.4028 4.44097 10.7465 4.15625 11.0312C3.87153 11.316 3.52778 11.4583 3.125 11.4583ZM16.875 11.4583C16.4722 11.4583 16.1285 11.316 15.8438 11.0312C15.559 10.7465 15.4167 10.4028 15.4167 10C15.4167 9.59722 15.559 9.25347 15.8438 8.96875C16.1285 8.68403 16.4722 8.54167 16.875 8.54167C17.2778 8.54167 17.6215 8.68403 17.9062 8.96875C18.191 9.25347 18.3333 9.59722 18.3333 10C18.3333 10.4028 18.191 10.7465 17.9062 11.0312C17.6215 11.316 17.2778 11.4583 16.875 11.4583ZM10 10C9.30556 10 8.71528 9.75694 8.22917 9.27083C7.74306 8.78472 7.5 8.19444 7.5 7.5C7.5 6.79167 7.74306 6.19792 8.22917 5.71875C8.71528 5.23958 9.30556 5 10 5C10.7083 5 11.3021 5.23958 11.7812 5.71875C12.2604 6.19792 12.5 6.79167 12.5 7.5C12.5 8.19444 12.2604 8.78472 11.7812 9.27083C11.3021 9.75694 10.7083 10 10 10ZM10 6.25C9.65278 6.25 9.35764 6.36806 9.11458 6.60417C8.87153 6.84028 8.75 7.13889 8.75 7.5C8.75 7.84722 8.87153 8.14236 9.11458 8.38542C9.35764 8.62847 9.65278 8.75 10 8.75C10.3611 8.75 10.6597 8.62847 10.8958 8.38542C11.1319 8.14236 11.25 7.84722 11.25 7.5C11.25 7.13889 11.1319 6.84028 10.8958 6.60417C10.6597 6.36806 10.3611 6.25 10 6.25Z" fill="#104183"/>
</svg>
