<svg class="icone--azul" width="20" height="20" viewBox="0 0 20 20" fill="none" xmlns="http://www.w3.org/2000/svg">
<path d="M12.3333 17.3543L7.27083 15.5627L3.54167 17.0418C3.30556 17.1668 3.07292 17.1599 2.84375 17.021C2.61458 16.8821 2.5 16.6738 2.5 16.396V4.771C2.5 4.59044 2.55208 4.43072 2.65625 4.29183C2.76042 4.15294 2.89583 4.04877 3.0625 3.97933L6.85417 2.646C6.99306 2.60433 7.13194 2.5835 7.27083 2.5835C7.40972 2.5835 7.54861 2.60433 7.6875 2.646L12.75 4.41683L16.4583 2.93766C16.6944 2.82655 16.9271 2.83697 17.1562 2.96891C17.3854 3.10086 17.5 3.30572 17.5 3.5835V15.3543C17.5 15.5071 17.4479 15.6391 17.3438 15.7502C17.2396 15.8613 17.1111 15.9446 16.9583 16.0002L13.1667 17.3543C13.0278 17.396 12.8889 17.4168 12.75 17.4168C12.6111 17.4168 12.4722 17.396 12.3333 17.3543ZM12.0417 15.9377V5.41683L7.95833 4.04183V14.5627L12.0417 15.9377ZM13.2917 15.9377L16.25 14.9585V4.29183L13.2917 5.41683V15.9377ZM3.75 15.6877L6.70833 14.5627V4.04183L3.75 5.021V15.6877ZM13.2917 5.41683V15.9377V5.41683ZM6.70833 4.04183V14.5627V4.04183Z" fill="#104183"/>
</svg>
