<svg class="icone" width="48" height="48" viewBox="0 0 48 48" fill="none" xmlns="http://www.w3.org/2000/svg">
<path d="M7.5 42C7.06667 42 6.70833 41.8583 6.425 41.575C6.14167 41.2917 6 40.9333 6 40.5C6 40.0667 6.14167 39.7083 6.425 39.425C6.70833 39.1417 7.06667 39 7.5 39H10.6V7.5C10.6 7.06667 10.7417 6.70833 11.025 6.425C11.3083 6.14167 11.6667 6 12.1 6H28.6C29.0333 6 29.3917 6.14167 29.675 6.425C29.9583 6.70833 30.1 7.06667 30.1 7.5V8.25H35.95C36.3833 8.25 36.7417 8.39167 37.025 8.675C37.3083 8.95833 37.45 9.31667 37.45 9.75V21.3H34.45V11.25H30.1V24.85H27.1V9H13.6V39H23.9V42H7.5ZM35.45 44C35.25 44 35.0833 43.9417 34.95 43.825C34.8167 43.7083 34.7333 43.55 34.7 43.35L34.5 41.6C33.8333 41.4 33.15 41.1083 32.45 40.725C31.75 40.3417 31.1833 39.9167 30.75 39.45L29.25 40.15C29.0833 40.2167 28.9083 40.2333 28.725 40.2C28.5417 40.1667 28.4 40.0667 28.3 39.9L27.25 38.3C27.15 38.1333 27.1167 37.9667 27.15 37.8C27.1833 37.6333 27.2833 37.4833 27.45 37.35L28.8 36.25C28.6333 35.4833 28.55 34.7917 28.55 34.175C28.55 33.5583 28.6333 32.8667 28.8 32.1L27.45 31C27.2833 30.8667 27.1833 30.7167 27.15 30.55C27.1167 30.3833 27.15 30.2167 27.25 30.05L28.3 28.4C28.4 28.2333 28.5417 28.1333 28.725 28.1C28.9083 28.0667 29.0833 28.0833 29.25 28.15L30.75 28.85C31.1833 28.45 31.75 28.05 32.45 27.65C33.15 27.25 33.8333 26.95 34.5 26.75L34.7 24.95C34.7333 24.75 34.8167 24.5917 34.95 24.475C35.0833 24.3583 35.25 24.3 35.45 24.3H37.1C37.3 24.3 37.4667 24.3583 37.6 24.475C37.7333 24.5917 37.8167 24.75 37.85 24.95L38.05 26.75C38.7167 26.95 39.4 27.25 40.1 27.65C40.8 28.05 41.3667 28.45 41.8 28.85L43.3 28.15C43.4667 28.0833 43.6417 28.0667 43.825 28.1C44.0083 28.1333 44.15 28.2333 44.25 28.4L45.3 30.05C45.4 30.2167 45.4333 30.3833 45.4 30.55C45.3667 30.7167 45.2667 30.8667 45.1 31L43.75 32.1C43.9167 32.8667 44 33.5583 44 34.175C44 34.7917 43.9167 35.4833 43.75 36.25L45.1 37.35C45.2667 37.4833 45.3667 37.6333 45.4 37.8C45.4333 37.9667 45.4 38.1333 45.3 38.3L44.25 39.9C44.15 40.0667 44.0083 40.1667 43.825 40.2C43.6417 40.2333 43.4667 40.2167 43.3 40.15L41.8 39.45C41.3667 39.9167 40.8 40.3417 40.1 40.725C39.4 41.1083 38.7167 41.4 38.05 41.6L37.85 43.35C37.8167 43.55 37.7333 43.7083 37.6 43.825C37.4667 43.9417 37.3 44 37.1 44H35.45ZM36.25 39.25C37.7167 39.25 38.9333 38.7667 39.9 37.8C40.8667 36.8333 41.35 35.6167 41.35 34.15C41.35 32.6833 40.8667 31.4667 39.9 30.5C38.9333 29.5333 37.7167 29.05 36.25 29.05C34.7833 29.05 33.5667 29.5333 32.6 30.5C31.6333 31.4667 31.15 32.6833 31.15 34.15C31.15 35.6167 31.6333 36.8333 32.6 37.8C33.5667 38.7667 34.7833 39.25 36.25 39.25ZM22.55 26C21.9833 26 21.5083 25.8083 21.125 25.425C20.7417 25.0417 20.55 24.5667 20.55 24C20.55 23.4333 20.7417 22.9583 21.125 22.575C21.5083 22.1917 21.9833 22 22.55 22C23.1167 22 23.5917 22.1917 23.975 22.575C24.3583 22.9583 24.55 23.4333 24.55 24C24.55 24.5667 24.3583 25.0417 23.975 25.425C23.5917 25.8083 23.1167 26 22.55 26ZM13.6 39V9V39Z" fill="#104183"/>
</svg>
