<svg class="icone" width="48" height="48" viewBox="0 0 48 48" fill="none" xmlns="http://www.w3.org/2000/svg">
<path d="M34.85 16.85H37.85V13.85H34.85V16.85ZM34.85 25.4H37.85V22.4H34.85V25.4ZM34.85 33.9H37.85V30.9H34.85V33.9ZM32.05 42V39H43V9H23.25V14.6L20.25 12.5V9C20.25 8.16667 20.5417 7.45833 21.125 6.875C21.7083 6.29167 22.4167 6 23.25 6H43C43.8333 6 44.5417 6.29167 45.125 6.875C45.7083 7.45833 46 8.16667 46 9V39C46 39.8333 45.7083 40.5417 45.125 41.125C44.5417 41.7083 43.8333 42 43 42H32.05ZM2 40.5V24.05C2 23.5833 2.10833 23.125 2.325 22.675C2.54167 22.225 2.85 21.8667 3.25 21.6L13.8 14.05C14.3333 13.6833 14.9167 13.5 15.55 13.5C16.1833 13.5 16.7667 13.6833 17.3 14.05L27.8 21.6C28.2 21.8667 28.5083 22.225 28.725 22.675C28.9417 23.125 29.05 23.5833 29.05 24.05V40.5C29.05 40.9333 28.9083 41.2917 28.625 41.575C28.3417 41.8583 27.9833 42 27.55 42H18.2V31.95H12.9V42H3.5C3.06667 42 2.70833 41.8583 2.425 41.575C2.14167 41.2917 2 40.9333 2 40.5ZM5 39H9.9V28.95H21.2V39H26.05V24.05L15.55 16.5L5 24.05V39ZM21.2 39V28.95H9.9V39V28.95H21.2V39Z" fill="#104183"/>
</svg>
