<svg width="767" height="327" viewBox="0 0 767 327" fill="none" xmlns="http://www.w3.org/2000/svg">
<path d="M0 241.282V250.806H767V241.282H0Z" fill="url(#paint0_linear_970_154)"/>
<path d="M53.0694 215.883L61.3955 195.371H121.703L129.804 215.883H175.035L111.127 58.7743H71.9718L8.06348 215.883H53.0694ZM91.5493 113.548L110.452 162.236H72.6469L91.5493 113.548ZM244.53 215.883V97.5444H285.936V58.7743H159.469V97.5444H201.775V215.883H244.53ZM417.413 215.883V178.015H342.703V154.122H410.662V118.958H342.703V97.319H415.613V58.7743H299.947V215.883H417.413ZM480.228 215.883V128.2L549.311 215.883H584.191V58.7743H543.236V143.077L477.527 58.7743H439.272V215.883H480.228ZM643.329 215.883L651.655 195.371H711.963L720.064 215.883H765.295L701.387 58.7743H662.232L598.323 215.883H643.329ZM681.809 113.548L700.712 162.236H662.907L681.809 113.548Z" fill="#104183"/>
<defs>
<linearGradient id="paint0_linear_970_154" x1="0" y1="246.044" x2="767" y2="246.044" gradientUnits="userSpaceOnUse">
<stop stop-color="#FFFF00"/>
<stop offset="0.509615" stop-color="#54AD33"/>
<stop offset="1" stop-color="#FFFF00"/>
</linearGradient>
</defs>
</svg>
