<svg width="162" height="34" viewBox="0 0 162 34" fill="none" xmlns="http://www.w3.org/2000/svg">
<path d="M9.888 34L11.664 29.632H24.528L26.256 34H35.904L22.272 0.543999H13.92L0.288 34H9.888ZM18.096 12.208L22.128 22.576H14.064L18.096 12.208ZM50.7278 34V8.8H59.5598V0.543999H32.5838V8.8H41.6078V34H50.7278ZM87.6045 34V25.936H71.6685V20.848H86.1645V13.36H71.6685V8.752H87.2205V0.543999H62.5485V34H87.6045ZM101.003 34V15.328L115.739 34H123.179V0.543999H114.443V18.496L100.427 0.543999H92.2673V34H101.003ZM135.794 34L137.57 29.632H150.434L152.162 34H161.81L148.178 0.543999H139.826L126.194 34H135.794ZM144.002 12.208L148.034 22.576H139.97L144.002 12.208Z" fill="white"/>
</svg>
