<svg width="217" height="197" viewBox="0 0 217 197" fill="none" xmlns="http://www.w3.org/2000/svg">
<path d="M15.9668 163V159.808H9.65882V157.794H15.3968V154.83H9.65882V153.006H15.8148V149.757H6.04882V163H15.9668ZM23.2085 163C25.5075 163 27.2745 162.411 28.4715 161.214C29.6875 160.017 30.2955 158.421 30.2955 156.407C30.2955 154.431 29.6875 152.835 28.4525 151.6C27.2365 150.365 25.4885 149.757 23.1895 149.757H17.8125V163H23.2085ZM21.4225 153.177H22.9615C24.5005 153.177 25.5075 153.519 26.0205 154.146C26.5335 154.773 26.6665 155.438 26.6665 156.407C26.6665 157.395 26.5335 158.06 26.0205 158.725C25.5455 159.39 24.5005 159.732 22.9805 159.732H21.4225V153.177ZM31.7992 157.3C31.7992 159.219 32.3692 160.682 33.4902 161.689C34.6112 162.696 36.0362 163.19 37.7462 163.19C39.4562 163.19 40.8812 162.696 42.0022 161.689C43.1232 160.682 43.6932 159.219 43.6932 157.3V149.757H40.0832V156.92C40.0832 159.105 39.2472 159.922 37.7462 159.922C36.2452 159.922 35.4092 159.105 35.4092 156.92V149.757H31.7992V157.3ZM52.4072 149.567C50.3932 149.567 48.6832 150.213 47.2772 151.524C45.8902 152.816 45.1872 154.431 45.1872 156.388C45.1872 158.345 45.8902 159.96 47.2772 161.252C48.6832 162.544 50.3932 163.19 52.4072 163.19C54.5542 163.19 56.5302 162.221 57.8982 160.606L55.4472 158.554C54.6112 159.485 53.6042 159.96 52.4072 159.96C51.4002 159.96 50.5452 159.618 49.8422 158.953C49.1392 158.269 48.7972 157.414 48.7972 156.388C48.7972 155.362 49.1392 154.507 49.8422 153.823C50.5452 153.139 51.4002 152.797 52.4072 152.797C53.6042 152.797 54.6112 153.272 55.4472 154.203L57.8982 152.151C56.5302 150.536 54.5542 149.567 52.4072 149.567ZM61.7792 163L62.4822 161.271H67.5742L68.2582 163H72.0772L66.6812 149.757H63.3752L57.9792 163H61.7792ZM65.0282 154.374L66.6242 158.478H63.4322L65.0282 154.374ZM71.9059 156.388C71.9059 158.136 72.4759 159.637 73.6349 160.891C74.7939 162.126 76.2379 162.867 77.9859 163.114L77.4349 164.444C78.1189 164.444 78.4419 164.615 78.4419 165.09C78.4419 165.413 78.1759 165.622 77.7959 165.622C77.4919 165.622 77.2069 165.546 76.9599 165.394L76.3139 166.762C76.8269 167.142 77.4919 167.332 78.2709 167.332C79.7719 167.332 80.7219 166.591 80.7219 165.318C80.7219 164.463 80.1709 163.874 79.4679 163.874L79.7719 163.152H79.7909C81.7289 162.981 83.3439 162.126 84.6169 160.606L82.1659 158.554C81.3299 159.485 80.3229 159.96 79.1259 159.96C78.1189 159.96 77.2639 159.618 76.5609 158.953C75.8579 158.269 75.5159 157.414 75.5159 156.388C75.5159 155.362 75.8579 154.507 76.5609 153.823C77.2639 153.139 78.1189 152.797 79.1259 152.797C80.3229 152.797 81.3299 153.272 82.1659 154.203L84.6169 152.151C83.2489 150.536 81.2729 149.567 79.1259 149.567C77.1119 149.567 75.4019 150.213 73.9959 151.524C72.6089 152.816 71.9059 154.431 71.9059 156.388ZM89.372 148.845C89.448 148.408 89.695 148.18 90.132 148.18C90.436 148.18 90.911 148.313 91.557 148.598C92.203 148.883 92.773 149.016 93.286 149.016C94.92 149.016 95.87 148.028 96.136 146.071L94.274 145.767C94.141 146.299 93.856 146.565 93.438 146.565C93.134 146.565 92.659 146.432 92.013 146.147C91.386 145.862 90.816 145.729 90.322 145.729C88.745 145.729 87.738 146.869 87.51 148.541L89.372 148.845ZM88.498 163L89.201 161.271H94.293L94.977 163H98.796L93.4 149.757H90.094L84.698 163H88.498ZM91.747 154.374L93.343 158.478H90.151L91.747 154.374ZM113.236 156.426C113.236 154.526 112.514 152.911 111.089 151.581C109.664 150.232 107.954 149.567 105.921 149.567C103.888 149.567 102.178 150.232 100.753 151.581C99.3277 152.93 98.6247 154.545 98.6247 156.426C98.6247 158.307 99.3277 159.922 100.753 161.271C102.178 162.601 103.888 163.266 105.921 163.266C107.954 163.266 109.664 162.601 111.089 161.271C112.514 159.922 113.236 158.307 113.236 156.426ZM102.311 156.426C102.311 155.438 102.672 154.583 103.375 153.88C104.078 153.158 104.933 152.797 105.921 152.797C106.909 152.797 107.764 153.158 108.467 153.88C109.189 154.602 109.55 155.457 109.55 156.426C109.55 157.395 109.189 158.25 108.467 158.972C107.764 159.675 106.909 160.036 105.921 160.036C104.914 160.036 104.059 159.694 103.356 158.991C102.653 158.288 102.311 157.433 102.311 156.426ZM114.172 165.432L116.566 160.891H113.317L111.664 165.432H114.172ZM131.58 149.567C129.566 149.567 127.856 150.213 126.45 151.524C125.063 152.816 124.36 154.431 124.36 156.388C124.36 158.345 125.063 159.96 126.45 161.252C127.856 162.544 129.566 163.19 131.58 163.19C133.727 163.19 135.703 162.221 137.071 160.606L134.62 158.554C133.784 159.485 132.777 159.96 131.58 159.96C130.573 159.96 129.718 159.618 129.015 158.953C128.312 158.269 127.97 157.414 127.97 156.388C127.97 155.362 128.312 154.507 129.015 153.823C129.718 153.139 130.573 152.797 131.58 152.797C132.777 152.797 133.784 153.272 134.62 154.203L137.071 152.151C135.703 150.536 133.727 149.567 131.58 149.567ZM138.247 157.3C138.247 159.219 138.817 160.682 139.938 161.689C141.059 162.696 142.484 163.19 144.194 163.19C145.904 163.19 147.329 162.696 148.45 161.689C149.571 160.682 150.141 159.219 150.141 157.3V149.757H146.531V156.92C146.531 159.105 145.695 159.922 144.194 159.922C142.693 159.922 141.857 159.105 141.857 156.92V149.757H138.247V157.3ZM160.793 163V159.732H155.758V149.757H152.148V163H160.793ZM166.933 163V153.025H170.429V149.757H159.751V153.025H163.323V163H166.933ZM171.46 157.3C171.46 159.219 172.03 160.682 173.151 161.689C174.272 162.696 175.697 163.19 177.407 163.19C179.117 163.19 180.542 162.696 181.663 161.689C182.784 160.682 183.354 159.219 183.354 157.3V149.757H179.744V156.92C179.744 159.105 178.908 159.922 177.407 159.922C175.906 159.922 175.07 159.105 175.07 156.92V149.757H171.46V157.3ZM188.971 163V158.877H190.301H190.339L193.037 163H197.179L193.873 158.098C195.241 157.471 196.134 156.008 196.134 154.317C196.134 153.044 195.678 151.98 194.747 151.087C193.816 150.194 192.695 149.757 191.384 149.757H185.361V163H188.971ZM188.971 153.025H191.289C191.992 153.025 192.543 153.595 192.543 154.431C192.543 155.419 191.954 155.989 190.985 155.989H188.971V153.025ZM200.624 163L201.327 161.271H206.419L207.103 163H210.922L205.526 149.757H202.22L196.824 163H200.624ZM203.873 154.374L205.469 158.478H202.277L203.873 154.374ZM60.4702 189V185.808H54.1622V183.794H59.9002V180.83H54.1622V179.006H60.3182V175.757H50.5522V189H60.4702ZM79.6372 189V185.808H73.3292V183.794H79.0672V180.83H73.3292V179.006H79.4852V175.757H69.7192V189H79.6372ZM80.4334 186.378C80.9464 187.157 81.6684 187.822 82.6184 188.373C83.5874 188.924 84.8034 189.19 86.2854 189.19C89.8004 189.19 91.5674 187.556 91.5674 184.991C91.5674 183.186 90.6365 181.989 88.3564 181.172C87.5204 180.868 86.4754 180.564 86.0194 180.469C85.7914 180.412 85.5634 180.336 85.3544 180.241C84.9554 180.07 84.8224 179.861 84.8224 179.481C84.8224 179.006 85.3354 178.664 86.2664 178.664C87.2734 178.664 88.0714 179.006 88.6604 179.709L91.0354 177.676C89.9524 176.27 88.3184 175.567 86.1334 175.567C84.8224 175.567 83.7014 175.909 82.7704 176.612C81.8394 177.315 81.3834 178.284 81.3834 179.538C81.3834 181.324 82.4094 182.597 84.4424 183.357C85.0694 183.585 86.0194 183.87 86.5324 184.022C86.7984 184.098 87.0644 184.193 87.3114 184.288C87.8244 184.497 88.0524 184.744 88.0524 185.105C88.0524 185.732 87.4634 186.055 86.2854 186.055C84.8984 186.055 83.6824 185.39 82.9794 184.421L80.4334 186.378ZM96.5597 189V185.162H99.1627C100.322 185.162 101.386 184.725 102.355 183.832C103.324 182.939 103.818 181.818 103.818 180.469C103.818 178.949 103.134 177.657 102.203 176.916C101.272 176.156 100.17 175.757 99.1627 175.757H92.9497V189H96.5597ZM96.5597 179.025H98.9917C99.1627 179.025 99.3147 179.044 99.6757 179.196C100.037 179.348 100.265 179.804 100.265 180.469C100.265 181.096 100.037 181.552 99.6757 181.704C99.3527 181.856 99.1817 181.894 99.0107 181.894H96.5597V179.025ZM119.424 182.426C119.424 180.526 118.702 178.911 117.277 177.581C115.852 176.232 114.142 175.567 112.109 175.567C110.076 175.567 108.366 176.232 106.941 177.581C105.516 178.93 104.813 180.545 104.813 182.426C104.813 184.307 105.516 185.922 106.941 187.271C108.366 188.601 110.076 189.266 112.109 189.266C114.142 189.266 115.852 188.601 117.277 187.271C118.702 185.922 119.424 184.307 119.424 182.426ZM108.499 182.426C108.499 181.438 108.86 180.583 109.563 179.88C110.266 179.158 111.121 178.797 112.109 178.797C113.097 178.797 113.952 179.158 114.655 179.88C115.377 180.602 115.738 181.457 115.738 182.426C115.738 183.395 115.377 184.25 114.655 184.972C113.952 185.675 113.097 186.036 112.109 186.036C111.102 186.036 110.247 185.694 109.544 184.991C108.841 184.288 108.499 183.433 108.499 182.426ZM124.689 189V184.877H126.019H126.057L128.755 189H132.897L129.591 184.098C130.959 183.471 131.852 182.008 131.852 180.317C131.852 179.044 131.396 177.98 130.465 177.087C129.534 176.194 128.413 175.757 127.102 175.757H121.079V189H124.689ZM124.689 179.025H127.007C127.71 179.025 128.261 179.595 128.261 180.431C128.261 181.419 127.672 181.989 126.703 181.989H124.689V179.025ZM139.704 189V179.025H143.2V175.757H132.522V179.025H136.094V189H139.704ZM154.301 189V185.808H147.993V183.794H153.731V180.83H147.993V179.006H154.149V175.757H144.383V189H154.301ZM155.098 186.378C155.611 187.157 156.333 187.822 157.283 188.373C158.252 188.924 159.468 189.19 160.95 189.19C164.465 189.19 166.232 187.556 166.232 184.991C166.232 183.186 165.301 181.989 163.021 181.172C162.185 180.868 161.14 180.564 160.684 180.469C160.456 180.412 160.228 180.336 160.019 180.241C159.62 180.07 159.487 179.861 159.487 179.481C159.487 179.006 160 178.664 160.931 178.664C161.938 178.664 162.736 179.006 163.325 179.709L165.7 177.676C164.617 176.27 162.983 175.567 160.798 175.567C159.487 175.567 158.366 175.909 157.435 176.612C156.504 177.315 156.048 178.284 156.048 179.538C156.048 181.324 157.074 182.597 159.107 183.357C159.734 183.585 160.684 183.87 161.197 184.022C161.463 184.098 161.729 184.193 161.976 184.288C162.489 184.497 162.717 184.744 162.717 185.105C162.717 185.732 162.128 186.055 160.95 186.055C159.563 186.055 158.347 185.39 157.644 184.421L155.098 186.378Z" fill="white"/>
<rect x="4" y="143" width="2" height="208" transform="rotate(-90 4 143)" fill="url(#paint0_linear_402_15)"/>
<path d="M5.08 95.13C8.185 99.845 12.555 103.87 18.305 107.205C24.17 110.54 31.53 112.15 40.5 112.15C61.775 112.15 72.47 102.26 72.47 86.735C72.47 75.81 66.835 68.565 53.035 63.62C47.975 61.78 41.65 59.94 38.89 59.365C37.51 59.02 36.13 58.56 34.865 57.985C32.45 56.95 31.645 55.685 31.645 53.385C31.645 50.51 34.75 48.44 40.385 48.44C46.48 48.44 51.31 50.51 54.875 54.765L69.25 42.46C62.695 33.95 52.805 29.695 39.58 29.695C31.645 29.695 24.86 31.765 19.225 36.02C13.59 40.275 10.83 46.14 10.83 53.73C10.83 64.54 17.04 72.245 29.345 76.845C33.14 78.225 38.89 79.95 41.995 80.87C43.605 81.33 45.215 81.905 46.71 82.48C49.815 83.745 51.195 85.24 51.195 87.425C51.195 91.22 47.63 93.175 40.5 93.175C32.105 93.175 24.745 89.15 20.49 83.285L5.08 95.13ZM140.866 111V91.68H102.686V79.49H137.416V61.55H102.686V50.51H139.946V30.845H80.8363V111H140.866ZM212.067 111V91.68H173.887V79.49H208.617V61.55H173.887V50.51H211.147V30.845H152.037V111H212.067Z" fill="white"/>
<path d="M4.704 131.52C5.36 133.264 6.768 134.192 8.56 134.192C10.672 134.192 11.936 132.992 11.936 131.2C11.936 130.288 11.712 129.632 11.12 129.104C10.544 128.544 9.968 128.24 8.832 127.728L7.808 127.248C7.584 127.136 7.344 126.976 7.072 126.784C6.56 126.384 6.384 125.92 6.384 125.28C6.384 124.192 7.248 123.424 8.416 123.424C9.392 123.424 10.112 123.84 10.544 124.656L11.264 124.288C10.672 123.2 9.728 122.656 8.416 122.656C7.6 122.656 6.912 122.912 6.368 123.408C5.824 123.904 5.552 124.544 5.552 125.312C5.552 126.096 5.776 126.704 6.24 127.136C6.704 127.568 7.424 128 8.432 128.432C9.408 128.864 10.096 129.264 10.496 129.632C10.896 130 11.104 130.528 11.104 131.2C11.104 131.792 10.896 132.304 10.496 132.752C10.096 133.2 9.456 133.424 8.56 133.424C7.072 133.424 5.984 132.592 5.424 131.184L4.704 131.52ZM20.4624 134V133.232H15.1024V128.496H20.0464V127.712H15.1024V123.616H20.3504V122.848H14.2704V134H20.4624ZM28.0139 122.656C26.3979 122.656 25.0219 123.216 23.9019 124.32C22.7979 125.424 22.2379 126.784 22.2379 128.432C22.2379 130.08 22.7979 131.44 23.9019 132.544C25.0219 133.648 26.3979 134.192 28.0139 134.192C29.7259 134.192 31.2619 133.504 32.3019 132.288L31.7259 131.76C30.8139 132.864 29.5659 133.424 28.0139 133.424C26.5899 133.424 25.4219 132.944 24.4779 132C23.5339 131.056 23.0699 129.856 23.0699 128.432C23.0699 127.008 23.5339 125.808 24.4779 124.864C25.4219 123.904 26.5899 123.424 28.0139 123.424C29.5339 123.424 30.7659 123.968 31.7099 125.056L32.2699 124.528C31.1659 123.28 29.7419 122.656 28.0139 122.656ZM35.2899 134V129.328H37.9299C38.0899 129.328 38.2019 129.328 38.2659 129.312L40.8899 134H41.8019L39.0979 129.184C40.4259 128.752 41.2899 127.536 41.2899 126.064C41.2899 125.152 40.9699 124.384 40.3459 123.776C39.7219 123.152 38.9379 122.848 38.0259 122.848H34.4579V134H35.2899ZM35.2899 123.616H37.9939C38.6979 123.616 39.2899 123.856 39.7539 124.32C40.2179 124.784 40.4579 125.376 40.4579 126.064C40.4579 126.784 40.2179 127.376 39.7379 127.856C39.2739 128.32 38.6659 128.56 37.9459 128.56H35.2899V123.616ZM50.103 134V133.232H44.743V128.496H49.687V127.712H44.743V123.616H49.991V122.848H43.911V134H50.103ZM55.6705 134V123.616H58.9185V122.848H51.6065V123.616H54.8385V134H55.6705ZM59.4873 134L60.7193 130.96H66.2873L67.5353 134H68.4313L63.8393 122.848H63.1833L58.5913 134H59.4873ZM63.5033 124.128L65.9673 130.192H61.0393L63.5033 124.128ZM71.3524 134V129.328H73.9924C74.1524 129.328 74.2644 129.328 74.3284 129.312L76.9524 134H77.8644L75.1604 129.184C76.4884 128.752 77.3524 127.536 77.3524 126.064C77.3524 125.152 77.0324 124.384 76.4084 123.776C75.7844 123.152 75.0004 122.848 74.0884 122.848H70.5204V134H71.3524ZM71.3524 123.616H74.0564C74.7604 123.616 75.3524 123.856 75.8164 124.32C76.2804 124.784 76.5204 125.376 76.5204 126.064C76.5204 126.784 76.2804 127.376 75.8004 127.856C75.3364 128.32 74.7284 128.56 74.0084 128.56H71.3524V123.616ZM80.8695 134V122.848H80.0375V134H80.8695ZM83.9091 134L85.1411 130.96H90.7091L91.9571 134H92.8531L88.2611 122.848H87.6051L83.0131 134H83.9091ZM87.9251 124.128L90.3891 130.192H85.4611L87.9251 124.128ZM104.147 134C105.923 134 107.315 133.488 108.339 132.48C109.379 131.456 109.891 130.112 109.891 128.432C109.891 126.752 109.379 125.408 108.339 124.384C107.299 123.36 105.907 122.848 104.131 122.848H100.755V134H104.147ZM101.587 123.616H104.067C105.651 123.616 106.867 124.048 107.731 124.928C108.611 125.808 109.043 126.976 109.043 128.432C109.043 129.888 108.611 131.056 107.747 131.936C106.883 132.8 105.667 133.232 104.083 133.232H101.587V123.616ZM118.478 134V133.232H113.118V128.496H118.062V127.712H113.118V123.616H118.366V122.848H112.286V134H118.478ZM133.759 134V133.232H128.399V128.496H133.343V127.712H128.399V123.616H133.647V122.848H127.567V134H133.759ZM135.423 131.52C136.079 133.264 137.487 134.192 139.279 134.192C141.391 134.192 142.655 132.992 142.655 131.2C142.655 130.288 142.431 129.632 141.839 129.104C141.263 128.544 140.687 128.24 139.551 127.728L138.527 127.248C138.303 127.136 138.063 126.976 137.791 126.784C137.279 126.384 137.103 125.92 137.103 125.28C137.103 124.192 137.967 123.424 139.135 123.424C140.111 123.424 140.831 123.84 141.263 124.656L141.983 124.288C141.391 123.2 140.447 122.656 139.135 122.656C138.319 122.656 137.631 122.912 137.087 123.408C136.543 123.904 136.271 124.544 136.271 125.312C136.271 126.096 136.495 126.704 136.959 127.136C137.423 127.568 138.143 128 139.151 128.432C140.127 128.864 140.815 129.264 141.215 129.632C141.615 130 141.823 130.528 141.823 131.2C141.823 131.792 141.615 132.304 141.215 132.752C140.815 133.2 140.175 133.424 139.279 133.424C137.791 133.424 136.703 132.592 136.143 131.184L135.423 131.52ZM147.467 134V123.616H150.715V122.848H143.403V123.616H146.635V134H147.467ZM151.284 134L152.516 130.96H158.084L159.332 134H160.228L155.636 122.848H154.98L150.388 134H151.284ZM155.3 124.128L157.764 130.192H152.836L155.3 124.128ZM165.709 134C167.485 134 168.877 133.488 169.901 132.48C170.941 131.456 171.453 130.112 171.453 128.432C171.453 126.752 170.941 125.408 169.901 124.384C168.861 123.36 167.469 122.848 165.693 122.848H162.317V134H165.709ZM163.149 123.616H165.629C167.213 123.616 168.429 124.048 169.293 124.928C170.173 125.808 170.605 126.976 170.605 128.432C170.605 129.888 170.173 131.056 169.309 131.936C168.445 132.8 167.229 133.232 165.645 133.232H163.149V123.616ZM178.889 122.656C177.273 122.656 175.897 123.216 174.793 124.32C173.689 125.424 173.129 126.784 173.129 128.432C173.129 130.08 173.689 131.44 174.793 132.544C175.897 133.648 177.273 134.192 178.889 134.192C180.505 134.192 181.865 133.648 182.969 132.544C184.089 131.44 184.649 130.08 184.649 128.432C184.649 126.784 184.089 125.424 182.969 124.32C181.865 123.216 180.505 122.656 178.889 122.656ZM178.889 133.408C177.465 133.408 176.297 132.928 175.353 131.984C174.409 131.04 173.945 129.856 173.945 128.432C173.945 127.008 174.424 125.824 175.369 124.88C176.312 123.92 177.497 123.44 178.889 123.44C180.281 123.44 181.449 123.92 182.393 124.88C183.337 125.824 183.801 127.008 183.801 128.432C183.801 129.856 183.337 131.04 182.393 131.984C181.465 132.928 180.297 133.408 178.889 133.408ZM196.569 134C198.345 134 199.737 133.488 200.761 132.48C201.801 131.456 202.313 130.112 202.313 128.432C202.313 126.752 201.801 125.408 200.761 124.384C199.721 123.36 198.329 122.848 196.553 122.848H193.177V134H196.569ZM194.009 123.616H196.489C198.073 123.616 199.289 124.048 200.153 124.928C201.033 125.808 201.465 126.976 201.465 128.432C201.465 129.888 201.033 131.056 200.169 131.936C199.305 132.8 198.089 133.232 196.505 133.232H194.009V123.616ZM210.9 134V133.232H205.54V128.496H210.484V127.712H205.54V123.616H210.788V122.848H204.708V134H210.9Z" fill="white"/>
<defs>
<linearGradient id="paint0_linear_402_15" x1="5" y1="143" x2="5" y2="351" gradientUnits="userSpaceOnUse">
<stop stop-color="#FFFF00"/>
<stop offset="0.509615" stop-color="#54AD33"/>
<stop offset="1" stop-color="#FFFF00"/>
</linearGradient>
</defs>
</svg>
