<svg width="242" height="103" viewBox="0 0 242 103" fill="none" xmlns="http://www.w3.org/2000/svg">
<path d="M0 76L0 79L242 79V76L0 76Z" fill="url(#paint0_linear_514_110)"/>
<path d="M16.7442 68L19.3712 61.539H38.3992L40.9552 68H55.2262L35.0622 18.513H22.7082L2.54416 68H16.7442ZM28.8852 35.766L34.8492 51.102H22.9212L28.8852 35.766ZM77.153 68V30.725H90.217V18.513H50.315V30.725H63.663V68H77.153ZM131.7 68V56.072H108.128V48.546H129.57V37.47H108.128V30.654H131.132V18.513H94.6378V68H131.7ZM151.519 68V40.381L173.316 68H184.321V18.513H171.399V45.067L150.667 18.513H138.597V68H151.519ZM202.98 68L205.607 61.539H224.635L227.191 68H241.462L221.298 18.513H208.944L188.78 68H202.98ZM215.121 35.766L221.085 51.102H209.157L215.121 35.766Z" fill="white"/>
<path d="M230.468 94V84.939H226.646V87.175H227.998V94H230.468ZM231.83 93.766C232.337 94.247 233.13 94.247 233.611 93.766C234.118 93.285 234.118 92.479 233.611 91.998C233.13 91.517 232.337 91.517 231.83 91.998C231.349 92.479 231.349 93.285 231.83 93.766ZM234.33 91.348C234.421 92.141 234.798 92.804 235.435 93.337C236.072 93.87 236.839 94.13 237.71 94.13C238.62 94.13 239.413 93.87 240.076 93.337C240.739 92.804 241.129 92.141 241.22 91.348C241.246 91.075 241.259 90.438 241.259 89.463C241.259 88.488 241.246 87.864 241.22 87.591C241.129 86.798 240.739 86.135 240.076 85.602C239.413 85.069 238.62 84.809 237.71 84.809C236.839 84.809 236.072 85.069 235.435 85.602C234.798 86.135 234.421 86.798 234.33 87.591C234.304 87.864 234.291 88.488 234.291 89.463C234.291 90.438 234.304 91.075 234.33 91.348ZM236.657 91.075C236.631 90.88 236.618 90.334 236.618 89.463C236.618 88.644 236.631 88.124 236.657 87.929C236.709 87.396 237.164 86.993 237.775 86.993C238.334 86.993 238.828 87.396 238.893 87.929C238.919 88.124 238.932 88.644 238.932 89.463C238.932 90.334 238.919 90.88 238.893 91.075C238.828 91.608 238.334 92.011 237.775 92.011C237.164 92.011 236.709 91.608 236.657 91.075Z" fill="white"/>
<defs>
<linearGradient id="paint0_linear_514_110" x1="0" y1="77.5" x2="242" y2="77.5" gradientUnits="userSpaceOnUse">
<stop stop-color="#FFFF00"/>
<stop offset="0.509615" stop-color="#54AD33"/>
<stop offset="1" stop-color="#FFFF00"/>
</linearGradient>
</defs>
</svg>
