<svg class="icone" width="48" height="48" viewBox="0 0 48 48" fill="none" xmlns="http://www.w3.org/2000/svg">
<path d="M32.95 34.9499C32.65 35.2499 32.3 35.3916 31.9 35.3749C31.5 35.3582 31.15 35.1999 30.85 34.8999C30.55 34.5999 30.4 34.2416 30.4 33.8249C30.4 33.4082 30.55 33.0499 30.85 32.7499L39.7 23.8999L30.9 15.0999C30.6 14.7999 30.4583 14.4416 30.475 14.0249C30.4917 13.6082 30.65 13.2499 30.95 12.9499C31.25 12.6499 31.6083 12.4999 32.025 12.4999C32.4417 12.4999 32.8 12.6499 33.1 12.9499L42.95 22.8499C43.25 23.1499 43.4 23.4999 43.4 23.8999C43.4 24.2999 43.25 24.6499 42.95 24.9499L32.95 34.9499ZM14.95 34.7999L5.05001 24.9499C4.75001 24.6499 4.60001 24.2999 4.60001 23.8999C4.60001 23.4999 4.75001 23.1499 5.05001 22.8499L15.05 12.8499C15.35 12.5499 15.7083 12.3999 16.125 12.3999C16.5417 12.3999 16.9 12.5499 17.2 12.8499C17.5 13.1499 17.65 13.5082 17.65 13.9249C17.65 14.3416 17.5 14.6999 17.2 14.9999L8.30001 23.8999L17.1 32.6999C17.4 32.9999 17.55 33.3499 17.55 33.7499C17.55 34.1499 17.4 34.4999 17.1 34.7999C16.8 35.0999 16.4417 35.2499 16.025 35.2499C15.6083 35.2499 15.25 35.0999 14.95 34.7999V34.7999Z" fill="black"/>
</svg>
