<svg class="icone" width="48" height="48" viewBox="0 0 48 48" fill="none" xmlns="http://www.w3.org/2000/svg">
<path d="M8.59999 42C7.19999 42 6.20832 41.35 5.62499 40.05C5.04165 38.75 5.23332 37.5667 6.19999 36.5L18.6 22.5V9H16C15.5667 9 15.2083 8.85833 14.925 8.575C14.6417 8.29167 14.5 7.93333 14.5 7.5C14.5 7.06667 14.6417 6.70833 14.925 6.425C15.2083 6.14167 15.5667 6 16 6H32C32.4333 6 32.7917 6.14167 33.075 6.425C33.3583 6.70833 33.5 7.06667 33.5 7.5C33.5 7.93333 33.3583 8.29167 33.075 8.575C32.7917 8.85833 32.4333 9 32 9H29.4V22.5L41.8 36.5C42.7667 37.5667 42.9583 38.75 42.375 40.05C41.7917 41.35 40.8 42 39.4 42H8.59999ZM7.99999 39H40L26.4 23.6V9H21.6V23.6L7.99999 39Z" fill="black"/>
</svg>
