<svg class="icone--azul" width="20" height="20" viewBox="0 0 20 20" fill="none" xmlns="http://www.w3.org/2000/svg">
<path d="M10 13.7917C11.4444 12.625 12.5347 11.5035 13.2708 10.4271C14.0069 9.35071 14.375 8.34724 14.375 7.41669C14.375 6.59724 14.2257 5.9028 13.9271 5.33335C13.6285 4.76391 13.2604 4.29863 12.8229 3.93752C12.3854 3.57641 11.9097 3.31599 11.3958 3.15627C10.8819 2.99655 10.4167 2.91669 10 2.91669C9.58333 2.91669 9.11806 2.99655 8.60417 3.15627C8.09028 3.31599 7.61458 3.57641 7.17708 3.93752C6.73958 4.29863 6.37153 4.76391 6.07292 5.33335C5.77431 5.9028 5.625 6.59724 5.625 7.41669C5.625 8.34724 5.99306 9.35071 6.72917 10.4271C7.46528 11.5035 8.55556 12.625 10 13.7917ZM10 15.1459C9.90278 15.1459 9.8125 15.1354 9.72917 15.1146C9.64583 15.0938 9.56944 15.0556 9.5 15C7.76389 13.6528 6.47569 12.3577 5.63542 11.1146C4.79514 9.87155 4.375 8.63891 4.375 7.41669C4.375 6.47224 4.54514 5.64238 4.88542 4.9271C5.22569 4.21183 5.66667 3.61113 6.20833 3.12502C6.75 2.63891 7.35417 2.27433 8.02083 2.03127C8.6875 1.78821 9.34722 1.66669 10 1.66669C10.6528 1.66669 11.3125 1.78821 11.9792 2.03127C12.6458 2.27433 13.25 2.63891 13.7917 3.12502C14.3333 3.61113 14.7743 4.21183 15.1146 4.9271C15.4549 5.64238 15.625 6.47224 15.625 7.41669C15.625 8.63891 15.2049 9.87155 14.3646 11.1146C13.5243 12.3577 12.2361 13.6528 10.5 15C10.4306 15.0556 10.3542 15.0938 10.2708 15.1146C10.1875 15.1354 10.0972 15.1459 10 15.1459ZM10 8.75002C10.4028 8.75002 10.7465 8.60766 11.0312 8.32294C11.316 8.03821 11.4583 7.69446 11.4583 7.29169C11.4583 6.88891 11.316 6.54516 11.0312 6.26044C10.7465 5.97571 10.4028 5.83335 10 5.83335C9.59722 5.83335 9.25347 5.97571 8.96875 6.26044C8.68403 6.54516 8.54167 6.88891 8.54167 7.29169C8.54167 7.69446 8.68403 8.03821 8.96875 8.32294C9.25347 8.60766 9.59722 8.75002 10 8.75002ZM5 18.3334C4.81944 18.3334 4.67014 18.2743 4.55208 18.1563C4.43403 18.0382 4.375 17.8889 4.375 17.7084C4.375 17.5278 4.43403 17.3785 4.55208 17.2604C4.67014 17.1424 4.81944 17.0834 5 17.0834H15C15.1806 17.0834 15.3299 17.1424 15.4479 17.2604C15.566 17.3785 15.625 17.5278 15.625 17.7084C15.625 17.8889 15.566 18.0382 15.4479 18.1563C15.3299 18.2743 15.1806 18.3334 15 18.3334H5Z" fill="#104183"/>
</svg>
