<svg class="icone" width="48" height="48" viewBox="0 0 48 48" fill="none" xmlns="http://www.w3.org/2000/svg">
<path d="M24 45.4C23.8 45.4 23.6167 45.3667 23.45 45.3C23.2833 45.2333 23.1167 45.1167 22.95 44.95L17.95 39.95H9C8.2 39.95 7.5 39.65 6.9 39.05C6.3 38.45 6 37.75 6 36.95V6.95001C6 6.11668 6.3 5.40835 6.9 4.82501C7.5 4.24168 8.2 3.95001 9 3.95001H39C39.8 3.95001 40.5 4.24168 41.1 4.82501C41.7 5.40835 42 6.11668 42 6.95001V36.95C42 37.75 41.7 38.45 41.1 39.05C40.5 39.65 39.8 39.95 39 39.95H30.05L25.05 44.95C24.8833 45.1167 24.7167 45.2333 24.55 45.3C24.3833 45.3667 24.2 45.4 24 45.4ZM9 35.05C11 33.2167 13.2667 31.725 15.8 30.575C18.3333 29.425 21.0667 28.85 24 28.85C26.9333 28.85 29.6667 29.425 32.2 30.575C34.7333 31.725 37 33.2167 39 35.05V6.95001H9V35.05ZM24.1 24.9C26.0333 24.9 27.6667 24.2333 29 22.9C30.3333 21.5667 31 19.9333 31 18C31 16.0667 30.3333 14.4333 29 13.1C27.6667 11.7667 26.0333 11.1 24.1 11.1C22.1667 11.1 20.5333 11.7667 19.2 13.1C17.8667 14.4333 17.2 16.0667 17.2 18C17.2 19.9333 17.8667 21.5667 19.2 22.9C20.5333 24.2333 22.1667 24.9 24.1 24.9ZM24.1 21.9C23.0333 21.9 22.1167 21.5167 21.35 20.75C20.5833 19.9833 20.2 19.0667 20.2 18C20.2 16.9 20.5833 15.975 21.35 15.225C22.1167 14.475 23.0333 14.1 24.1 14.1C25.2 14.1 26.125 14.475 26.875 15.225C27.625 15.975 28 16.9 28 18C28 19.0667 27.625 19.9833 26.875 20.75C26.125 21.5167 25.2 21.9 24.1 21.9ZM24 41.55L28.6 36.95H36.25V36.5C34.45 34.9667 32.525 33.8083 30.475 33.025C28.425 32.2417 26.2667 31.85 24 31.85C21.7667 31.85 19.6167 32.2417 17.55 33.025C15.4833 33.8083 13.55 34.9667 11.75 36.5V36.95H19.4L24 41.55Z" fill="#104183"/>
</svg>
