<svg class="icone--azul" width="20" height="20" viewBox="0 0 20 20" fill="none" xmlns="http://www.w3.org/2000/svg">
<path d="M4.58325 18.3333C4.24992 18.3333 3.95825 18.2083 3.70825 17.9583C3.45825 17.7083 3.33325 17.4166 3.33325 17.0833V2.91663C3.33325 2.58329 3.45825 2.29163 3.70825 2.04163C3.95825 1.79163 4.24992 1.66663 4.58325 1.66663H11.5833C11.7499 1.66663 11.9131 1.70135 12.0728 1.77079C12.2326 1.84024 12.368 1.93051 12.4791 2.04163L16.2916 5.85413C16.4027 5.96524 16.493 6.10065 16.5624 6.26038C16.6319 6.4201 16.6666 6.58329 16.6666 6.74996V17.0833C16.6666 17.4166 16.5416 17.7083 16.2916 17.9583C16.0416 18.2083 15.7499 18.3333 15.4166 18.3333H4.58325ZM4.58325 6.22913V2.91663V17.0833V6.22913ZM8.12492 14.9791C7.94436 14.9791 7.79506 14.9201 7.677 14.802C7.55895 14.684 7.49992 14.5347 7.49992 14.3541C7.49992 14.1736 7.55895 14.0243 7.677 13.9062C7.79506 13.7882 7.94436 13.7291 8.12492 13.7291H11.2499V12.2708H8.12492C7.94436 12.2708 7.79506 12.2118 7.677 12.0937C7.55895 11.9757 7.49992 11.8263 7.49992 11.6458V8.93746C7.49992 8.7569 7.55895 8.6076 7.677 8.48954C7.79506 8.37149 7.94436 8.31246 8.12492 8.31246H9.37492V8.10413C9.37492 7.92357 9.43395 7.77426 9.552 7.65621C9.67006 7.53815 9.81936 7.47913 9.99992 7.47913C10.1805 7.47913 10.3298 7.53815 10.4478 7.65621C10.5659 7.77426 10.6249 7.92357 10.6249 8.10413V8.31246H11.8749C12.0555 8.31246 12.2048 8.37149 12.3228 8.48954C12.4409 8.6076 12.4999 8.7569 12.4999 8.93746C12.4999 9.11801 12.4409 9.26732 12.3228 9.38538C12.2048 9.50343 12.0555 9.56246 11.8749 9.56246H8.74992V11.0208H11.8749C12.0555 11.0208 12.2048 11.0798 12.3228 11.1979C12.4409 11.3159 12.4999 11.4652 12.4999 11.6458V14.3541C12.4999 14.5347 12.4409 14.684 12.3228 14.802C12.2048 14.9201 12.0555 14.9791 11.8749 14.9791H10.6249V15.2083C10.6249 15.3888 10.5659 15.5347 10.4478 15.6458C10.3298 15.7569 10.1805 15.8125 9.99992 15.8125C9.81936 15.8125 9.67006 15.7534 9.552 15.6354C9.43395 15.5173 9.37492 15.368 9.37492 15.1875V14.9791H8.12492ZM15.4166 6.22913H11.6874C11.5069 6.22913 11.3576 6.1701 11.2395 6.05204C11.1214 5.93399 11.0624 5.78468 11.0624 5.60413V2.91663H4.58325V17.0833H15.4166V6.22913Z" fill="#104183"/>
</svg>
