<svg class="icone" width="48" height="48" viewBox="0 0 48 48" fill="none" xmlns="http://www.w3.org/2000/svg">
<path d="M7 39V14.35V39ZM7 42C6.2 42 5.5 41.7 4.9 41.1C4.3 40.5 4 39.8 4 39V14.35C4 13.55 4.3 12.85 4.9 12.25C5.5 11.65 6.2 11.35 7 11.35H16.5V7C16.5 6.23333 16.8 5.54167 17.4 4.925C18 4.30833 18.7 4 19.5 4H28.5C29.3 4 30 4.30833 30.6 4.925C31.2 5.54167 31.5 6.23333 31.5 7V11.35H41C41.8 11.35 42.5 11.65 43.1 12.25C43.7 12.85 44 13.55 44 14.35V26.25C43.5333 25.8833 43.0583 25.55 42.575 25.25C42.0917 24.95 41.5667 24.6667 41 24.4V14.35H7V39.025V39H23.7C23.8333 39.5333 24 40.05 24.2 40.55C24.4 41.05 24.6333 41.5333 24.9 42H7ZM19.5 11.35H28.5V7H19.5V11.35ZM36 45.65C33.3667 45.65 31.1 44.7 29.2 42.8C27.3 40.9 26.35 38.6333 26.35 36C26.35 33.3667 27.3 31.1 29.2 29.2C31.1 27.3 33.3667 26.35 36 26.35C38.6333 26.35 40.9 27.3 42.8 29.2C44.7 31.1 45.65 33.3667 45.65 36C45.65 38.6333 44.7 40.9 42.8 42.8C40.9 44.7 38.6333 45.65 36 45.65ZM39.7 41.05L41.05 39.7L36.85 35.9V29.7H34.75V36.5L39.7 41.05Z" fill="#104183"/>
</svg>
