<svg class="icone--azul" width="20" height="20" viewBox="0 0 20 20" fill="none" xmlns="http://www.w3.org/2000/svg">
<path d="M1.41675 16.6667C1.23619 16.6667 1.08689 16.6076 0.968831 16.4896C0.850776 16.3715 0.791748 16.2222 0.791748 16.0417V14.7083C0.791748 14.2222 0.916748 13.7812 1.16675 13.3854C1.41675 12.9896 1.76397 12.6944 2.20841 12.5C3.2223 12.0555 4.1355 11.7361 4.948 11.5417C5.7605 11.3472 6.5973 11.25 7.45842 11.25C8.31953 11.25 9.15286 11.3472 9.95842 11.5417C10.764 11.7361 11.6737 12.0555 12.6876 12.5C13.132 12.6944 13.4827 12.9896 13.7397 13.3854C13.9966 13.7812 14.1251 14.2222 14.1251 14.7083V16.0417C14.1251 16.2222 14.0661 16.3715 13.948 16.4896C13.8299 16.6076 13.6806 16.6667 13.5001 16.6667H1.41675ZM14.9167 16.6667C15.0556 16.6389 15.1667 16.566 15.2501 16.4479C15.3334 16.3299 15.3751 16.1805 15.3751 16V14.7083C15.3751 13.8333 15.1529 13.1146 14.7084 12.5521C14.264 11.9896 13.6806 11.5347 12.9584 11.1875C13.9167 11.2986 14.8195 11.4618 15.6667 11.6771C16.514 11.8924 17.2015 12.1389 17.7292 12.4167C18.1876 12.6805 18.5487 13.0069 18.8126 13.3958C19.0765 13.7847 19.2084 14.2222 19.2084 14.7083V16.0417C19.2084 16.2222 19.1494 16.3715 19.0313 16.4896C18.9133 16.6076 18.764 16.6667 18.5834 16.6667H14.9167ZM7.45842 9.97916C6.54175 9.97916 5.79175 9.68749 5.20842 9.10416C4.62508 8.52082 4.33341 7.77082 4.33341 6.85416C4.33341 5.93749 4.62508 5.18749 5.20842 4.60416C5.79175 4.02082 6.54175 3.72916 7.45842 3.72916C8.37508 3.72916 9.12508 4.02082 9.70842 4.60416C10.2917 5.18749 10.5834 5.93749 10.5834 6.85416C10.5834 7.77082 10.2917 8.52082 9.70842 9.10416C9.12508 9.68749 8.37508 9.97916 7.45842 9.97916ZM14.9584 6.85416C14.9584 7.77082 14.6667 8.52082 14.0834 9.10416C13.5001 9.68749 12.7501 9.97916 11.8334 9.97916C11.6806 9.97916 11.5105 9.96874 11.323 9.94791C11.1355 9.92707 10.9654 9.88888 10.8126 9.83332C11.1459 9.4861 11.3994 9.05902 11.573 8.55207C11.7466 8.04513 11.8334 7.47916 11.8334 6.85416C11.8334 6.22916 11.7466 5.67707 11.573 5.19791C11.3994 4.71874 11.1459 4.27777 10.8126 3.87499C10.9654 3.83332 11.1355 3.7986 11.323 3.77082C11.5105 3.74305 11.6806 3.72916 11.8334 3.72916C12.7501 3.72916 13.5001 4.02082 14.0834 4.60416C14.6667 5.18749 14.9584 5.93749 14.9584 6.85416ZM2.04175 15.4167H12.8751V14.7083C12.8751 14.4861 12.8091 14.2708 12.6772 14.0625C12.5452 13.8542 12.382 13.7083 12.1876 13.625C11.1876 13.1805 10.3473 12.8819 9.66675 12.7292C8.98619 12.5764 8.25008 12.5 7.45842 12.5C6.66675 12.5 5.92717 12.5764 5.23967 12.7292C4.55217 12.8819 3.70841 13.1805 2.70841 13.625C2.51397 13.7083 2.35425 13.8542 2.22925 14.0625C2.10425 14.2708 2.04175 14.4861 2.04175 14.7083V15.4167ZM7.45842 8.72916C8.00008 8.72916 8.448 8.55207 8.80217 8.19791C9.15633 7.84374 9.33342 7.39582 9.33342 6.85416C9.33342 6.31249 9.15633 5.86457 8.80217 5.51041C8.448 5.15624 8.00008 4.97916 7.45842 4.97916C6.91675 4.97916 6.46883 5.15624 6.11467 5.51041C5.7605 5.86457 5.58342 6.31249 5.58342 6.85416C5.58342 7.39582 5.7605 7.84374 6.11467 8.19791C6.46883 8.55207 6.91675 8.72916 7.45842 8.72916Z" fill="#104183"/>
</svg>
